<svg width="94" height="94" viewBox="0 0 94 94" fill="none" xmlns="http://www.w3.org/2000/svg">
<circle opacity="0.15" cx="47" cy="47" r="47" fill="#AAAFBB"/>
<g opacity="0.56">
<path d="M54.2268 41.5541C54.2268 42.9539 53.0921 44.0886 51.6923 44.0886C50.2925 44.0886 49.1577 42.9539 49.1577 41.5541C49.1577 40.1543 50.2925 39.0195 51.6923 39.0195C53.0921 39.0195 54.2268 40.1543 54.2268 41.5541Z" fill="#9399A6"/>
<path fill-rule="evenodd" clip-rule="evenodd" d="M46.6959 33H46.5505C43.6251 33 41.3326 33 39.5438 33.2405C37.713 33.4866 36.2682 34.0003 35.1343 35.1343C34.0003 36.2682 33.4866 37.713 33.2405 39.5438C33 41.3326 33 43.6251 33 46.5505V46.6959C33 49.6213 33 51.9138 33.2405 53.7026C33.4866 55.5334 34.0003 56.9781 35.1343 58.1121C36.2682 59.2461 37.713 59.7598 39.5438 60.0059C41.3326 60.2464 43.6251 60.2464 46.5505 60.2464H46.6959C49.6213 60.2464 51.9138 60.2464 53.7026 60.0059C55.5334 59.7598 56.9781 59.2461 58.1121 58.1121C59.2461 56.9781 59.7598 55.5334 60.0059 53.7026C60.2464 51.9138 60.2464 49.6213 60.2464 46.6959V46.5505C60.2464 43.6251 60.2464 41.3326 60.0059 39.5438C59.7598 37.713 59.2461 36.2682 58.1121 35.1343C56.9781 34.0003 55.5334 33.4866 53.7026 33.2405C51.9138 33 49.6213 33 46.6959 33ZM36.4784 36.4784C37.2003 35.7565 38.177 35.3422 39.7971 35.1244C41.4445 34.9029 43.6093 34.9009 46.6232 34.9009C49.637 34.9009 51.8018 34.9029 53.4493 35.1244C55.0693 35.3422 56.0461 35.7565 56.768 36.4784C57.4899 37.2003 57.9041 38.177 58.122 39.7971C58.3434 41.4445 58.3455 43.6093 58.3455 46.6232C58.3455 47.1938 58.3454 47.7339 58.3438 48.2458L58.0623 48.2069C54.4585 47.7079 51.1606 49.5814 49.4813 52.4052C47.315 46.9243 41.5901 43.1864 35.1933 44.1049L34.9072 44.1462C34.9216 42.365 34.9689 40.9536 35.1244 39.7971C35.3422 38.177 35.7565 37.2003 36.4784 36.4784Z" fill="#9399A6"/>
</g>
</svg>
