<svg width="21" height="20" viewBox="0 0 21 20" fill="none" xmlns="http://www.w3.org/2000/svg">
<path d="M10.25 4.65116C10.6353 4.65116 10.9477 4.96352 10.9477 5.34884V10.9302C10.9477 11.3155 10.6353 11.6279 10.25 11.6279C9.86469 11.6279 9.55233 11.3155 9.55233 10.9302V5.34884C9.55233 4.96352 9.86469 4.65116 10.25 4.65116Z" fill="black"/>
<path d="M10.25 14.6512C10.7638 14.6512 11.1802 14.2347 11.1802 13.7209C11.1802 13.2072 10.7638 12.7907 10.25 12.7907C9.73625 12.7907 9.31977 13.2072 9.31977 13.7209C9.31977 14.2347 9.73625 14.6512 10.25 14.6512Z" fill="black"/>
<path fill-rule="evenodd" clip-rule="evenodd" d="M0.25 10C0.25 4.47715 4.72715 0 10.25 0C15.7728 0 20.25 4.47715 20.25 10C20.25 15.5228 15.7728 20 10.25 20C4.72715 20 0.25 15.5228 0.25 10ZM10.25 1.39535C5.49778 1.39535 1.64535 5.24778 1.64535 10C1.64535 14.7522 5.49778 18.6047 10.25 18.6047C15.0022 18.6047 18.8547 14.7522 18.8547 10C18.8547 5.24778 15.0022 1.39535 10.25 1.39535Z" fill="black"/>
</svg>
