<svg width="19" height="20" viewBox="0 0 19 20" fill="none" xmlns="http://www.w3.org/2000/svg">
<path fill-rule="evenodd" clip-rule="evenodd" d="M3.72105 4.4186C3.72105 1.97828 5.69933 0 8.13966 0C10.58 0 12.5583 1.97828 12.5583 4.4186C12.5583 6.85893 10.58 8.83721 8.13966 8.83721C5.69933 8.83721 3.72105 6.85893 3.72105 4.4186ZM8.13966 1.39535C6.46996 1.39535 5.1164 2.74891 5.1164 4.4186C5.1164 6.0883 6.46996 7.44186 8.13966 7.44186C9.80936 7.44186 11.1629 6.0883 11.1629 4.4186C11.1629 2.74891 9.80936 1.39535 8.13966 1.39535Z" fill="#E42B2B"/>
<path fill-rule="evenodd" clip-rule="evenodd" d="M2.53543 11.5482C4.00471 10.7218 5.98752 10.2326 8.13966 10.2326C10.2918 10.2326 12.2746 10.7218 13.7439 11.5482C15.1913 12.3624 16.2792 13.5963 16.2792 15.1163L16.2793 15.2111C16.2803 16.2919 16.2816 17.6484 15.0918 18.6172C14.5063 19.0941 13.6871 19.4332 12.5804 19.6572C11.4706 19.8818 10.0241 20 8.13966 20C6.25522 20 4.80874 19.8818 3.69892 19.6572C2.5922 19.4332 1.77304 19.0941 1.18748 18.6172C-0.00230678 17.6484 -0.000987786 16.2919 6.31406e-05 15.2111L0.000124852 15.1163C0.000124852 13.5963 1.08802 12.3624 2.53543 11.5482ZM3.21951 12.7644C1.9735 13.4653 1.39547 14.3243 1.39547 15.1163C1.39547 16.3328 1.43298 17.0177 2.06858 17.5353C2.41326 17.816 2.98945 18.0899 3.97574 18.2896C4.95895 18.4886 6.30317 18.6047 8.13966 18.6047C9.97615 18.6047 11.3204 18.4886 12.3036 18.2896C13.2899 18.0899 13.8661 17.816 14.2107 17.5353C14.8463 17.0177 14.8838 16.3328 14.8838 15.1163C14.8838 14.3243 14.3058 13.4653 13.0598 12.7644C11.8357 12.0758 10.0975 11.6279 8.13966 11.6279C6.18177 11.6279 4.44366 12.0758 3.21951 12.7644Z" fill="#E42B2B"/>
<path d="M18.3208 7.31746C18.5932 7.045 18.5932 6.60326 18.3208 6.3308C18.0483 6.05834 17.6066 6.05834 17.3341 6.3308L16.5119 7.15303L15.6897 6.33081C15.4172 6.05835 14.9755 6.05835 14.703 6.33081C14.4306 6.60327 14.4306 7.04501 14.703 7.31747L15.5252 8.13969L14.703 8.96189C14.4306 9.23435 14.4306 9.67609 14.703 9.94855C14.9755 10.221 15.4172 10.221 15.6897 9.94855L16.5119 9.12635L17.3341 9.94856C17.6066 10.221 18.0483 10.221 18.3208 9.94856C18.5932 9.67611 18.5932 9.23436 18.3208 8.9619L17.4986 8.13969L18.3208 7.31746Z" fill="#E42B2B"/>
</svg>
