<svg width="30" height="30" viewBox="0 0 30 30" fill="none" xmlns="http://www.w3.org/2000/svg">
<g style="mix-blend-mode:luminosity" opacity="0.5">
<g clip-path="url(#clip0_1254_4887)">
<path d="M13.4202 23.9661C13.6588 23.9661 13.8974 23.964 14.1364 23.9661C14.1922 23.9661 14.2543 23.9471 14.2998 24.0014H13.4213C13.41 23.994 13.4061 23.9866 13.4093 23.9792C13.4124 23.9718 13.4163 23.9661 13.4202 23.9661Z" fill="#111111"/>
<path d="M15.7754 23.9996C15.906 23.9262 16.0472 23.9738 16.1831 23.9664C16.3398 23.9576 16.4972 23.9664 16.6543 23.9664C16.6656 23.9742 16.6695 23.9819 16.6656 23.9897C16.6617 23.9975 16.6578 24.0013 16.6539 24.0013L15.7754 23.9996Z" fill="#111111"/>
<path d="M12.5781 24.0003C12.677 23.9273 12.7899 23.9809 12.8937 23.9672C12.9057 23.9742 12.9096 23.9816 12.906 23.989C12.9025 23.9964 12.8983 24.0003 12.8944 24.0003H12.5781Z" fill="#444444"/>
<path d="M13.4203 23.9658C13.4203 23.9771 13.4203 23.9889 13.4203 24.0011H13.1379C13.1266 23.9937 13.1227 23.9859 13.1263 23.9782C13.1298 23.9704 13.1337 23.9669 13.1376 23.9669L13.4203 23.9658Z" fill="#232323"/>
<path d="M16.9006 23.9658L17.183 23.9679C17.1936 23.9757 17.1971 23.9827 17.1932 23.9894C17.1893 23.9961 17.1854 23.9997 17.1819 23.9997H16.8995C16.8879 23.9919 16.8843 23.9842 16.8882 23.9768C16.8921 23.9693 16.8967 23.9658 16.9006 23.9658Z" fill="#333333"/>
<path d="M13.1397 23.9658C13.1397 23.9771 13.1397 23.9884 13.1397 24.0011H12.8926C12.8926 23.9898 12.8926 23.9789 12.8926 23.9679L13.1397 23.9658Z" fill="#333333"/>
<path d="M16.8994 23.9668C16.8994 23.9781 16.8994 23.9894 16.8994 24.0021H16.6523C16.6523 23.9904 16.6523 23.9788 16.6523 23.9668H16.8994Z" fill="#222222"/>
<path d="M17.1816 24.0001C17.1816 23.9895 17.1816 23.9789 17.1816 23.9683C17.2635 23.9764 17.3525 23.9331 17.4266 24.0001H17.1816Z" fill="#444444"/>
<path d="M12.1211 24.0002C12.1497 23.9731 12.1876 23.958 12.227 23.958C12.2664 23.958 12.3043 23.9731 12.3329 24.0002H12.1211Z" fill="#909090"/>
<path d="M17.6035 23.9999C17.6741 23.9477 17.7447 23.9431 17.8153 23.9999H17.6035Z" fill="#7F7F7F"/>
<path d="M23.9713 11.2875C23.9667 11.2586 23.9561 11.2269 24.0002 11.2188V11.2893C23.99 11.3055 23.9801 11.3041 23.9713 11.2875Z" fill="#969696"/>
<path d="M23.9711 11.2878C23.9807 11.2869 23.9904 11.2869 24 11.2878V11.3583C23.9898 11.3749 23.9799 11.3735 23.9707 11.3583L23.9711 11.2878Z" fill="#7C7C7C"/>
<path d="M23.9711 11.3584C23.9809 11.3584 23.9908 11.3584 24.0004 11.3584V11.4289C23.9898 11.4455 23.9799 11.4441 23.9707 11.4289L23.9711 11.3584Z" fill="#676767"/>
<path d="M23.9711 11.4277H24.0008V11.4983C23.9669 11.4856 23.9658 11.4581 23.9711 11.4277Z" fill="#545454"/>
<path d="M23.9705 18.383C23.9659 18.3531 23.9684 18.3259 24.0005 18.3125V18.383C23.9913 18.3964 23.9815 18.3989 23.9705 18.383Z" fill="#464646"/>
<path d="M23.9688 18.3828H23.9988V18.4533C23.9896 18.4681 23.98 18.4696 23.9695 18.4533C23.9691 18.4297 23.9691 18.4061 23.9688 18.3828Z" fill="#5B5B5B"/>
<path d="M23.9707 18.4531H24V18.5236C23.9908 18.5388 23.9809 18.5392 23.9707 18.5236V18.4531Z" fill="#6F6F6F"/>
<path d="M23.9707 18.5234C23.9806 18.5234 23.9905 18.5234 24 18.5234V18.594C23.9908 18.6095 23.9809 18.6098 23.9707 18.594V18.5234Z" fill="#838383"/>
<path d="M23.9694 18.5938H23.9987V18.6643C23.9546 18.6544 23.9644 18.623 23.9694 18.5938Z" fill="#979797"/>
<path d="M18.0254 23.9995C18.0487 23.9481 18.0723 23.9481 18.096 23.9995H18.0254Z" fill="#BABABA"/>
</g>
<circle cx="15" cy="15" r="15" fill="#0165FC"/>
<g clip-path="url(#clip1_1254_4887)">
<path d="M18.6075 5.99994C18.8075 6.07538 19.0199 6.03186 19.2277 6.06232C19.4334 6.08882 19.6405 6.10432 19.848 6.10875C19.9612 6.10875 20.003 6.14211 20.003 6.26252C20.003 7.12277 20.003 7.98447 20.003 8.84472C20.003 8.95642 19.9782 8.98979 19.848 8.98979C19.3311 8.98205 18.8116 8.98205 18.2896 8.98979C18.0644 8.98897 17.8395 9.00352 17.6166 9.03331C16.9049 9.14646 16.5312 9.5454 16.5079 10.2446C16.4862 10.9874 16.5079 11.7316 16.4909 12.4758C16.4909 12.6136 16.5762 12.5875 16.6599 12.5875C17.6616 12.5875 18.6633 12.5875 19.665 12.5875C19.8201 12.5875 19.8805 12.5962 19.8557 12.7717C19.7146 13.7219 19.5875 14.6735 19.4619 15.6266C19.4448 15.7528 19.4014 15.7964 19.2556 15.7964C18.3919 15.7877 17.5282 15.7964 16.6645 15.7891C16.542 15.7891 16.4909 15.8065 16.4909 15.9342C16.4909 18.5928 16.4909 21.2524 16.4909 23.9129C16.4909 23.9419 16.4909 23.9709 16.5002 23.9999H12.9694C12.9694 23.9361 12.9585 23.8723 12.9585 23.8085C12.9585 21.1972 12.9585 18.5899 12.9585 15.9864C12.9585 15.8254 12.9151 15.7833 12.743 15.7848C11.8855 15.7935 11.0265 15.7848 10.169 15.792C10.0325 15.792 9.99219 15.7659 9.99219 15.631C10.0005 14.6697 10.0005 13.7088 9.99219 12.7485C9.99219 12.615 10.0279 12.5831 10.1674 12.5846C11.0373 12.5846 11.9088 12.5846 12.7787 12.5846C12.9182 12.5846 12.957 12.5527 12.9554 12.4192C12.9554 11.5647 12.9337 10.7074 12.9709 9.85439C13.0144 8.83892 13.3338 7.91049 14.1014 7.15468C14.6732 6.60721 15.4119 6.23836 16.2164 6.09859C16.4258 6.07945 16.6333 6.04452 16.8367 5.99414H17.6368C17.7219 6.0232 17.8153 6.0232 17.9004 5.99414H18.164C18.2059 6.02751 18.257 6.00575 18.3036 6.01155H18.3749C18.4059 6.01155 18.4385 6.02025 18.4633 5.99414L18.6075 5.99994Z" fill="white"/>
<path d="M17.8945 6C17.8565 6.02683 17.8102 6.04134 17.7627 6.04134C17.7151 6.04134 17.6688 6.02683 17.6309 6H17.8945Z" fill="#2F2E30"/>
<path d="M18.3074 6.03046C18.2547 6.03046 18.1958 6.05658 18.1523 6H18.3074C18.3198 6 18.3245 6.01306 18.3198 6.01886C18.3152 6.02466 18.3121 6.03046 18.3074 6.03046Z" fill="#686768"/>
<path d="M18.3086 6.03046C18.3086 6.02031 18.3086 6.01015 18.3086 6H18.3846C18.397 6 18.4001 6.01306 18.397 6.01886C18.3939 6.02466 18.397 6.02901 18.3861 6.02901L18.3086 6.03046Z" fill="#858485"/>
<path d="M18.3834 6.02901C18.3826 6.01935 18.3826 6.00966 18.3834 6H18.4578C18.4485 6.04497 18.4113 6.03481 18.3834 6.02901Z" fill="#9C9C9D"/>
</g>
</g>
<defs>
<clipPath id="clip0_1254_4887">
<rect width="18" height="18" fill="white" transform="translate(6 6)"/>
</clipPath>
<clipPath id="clip1_1254_4887">
<rect width="10" height="18" fill="white" transform="translate(10 6)"/>
</clipPath>
</defs>
</svg>
