<svg width="30" height="30" viewBox="0 0 30 30" fill="none" xmlns="http://www.w3.org/2000/svg">
<g style="mix-blend-mode:luminosity" opacity="0.5">
<g clip-path="url(#clip0_1254_4860)">
<path d="M13.4202 23.9661C13.6588 23.9661 13.8974 23.964 14.1364 23.9661C14.1922 23.9661 14.2543 23.9471 14.2998 24.0014H13.4213C13.41 23.994 13.4061 23.9866 13.4093 23.9792C13.4124 23.9718 13.4163 23.9661 13.4202 23.9661Z" fill="#111111"/>
<path d="M15.7754 23.9996C15.906 23.9262 16.0472 23.9738 16.1831 23.9664C16.3398 23.9576 16.4972 23.9664 16.6543 23.9664C16.6656 23.9742 16.6695 23.9819 16.6656 23.9897C16.6617 23.9975 16.6578 24.0013 16.6539 24.0013L15.7754 23.9996Z" fill="#111111"/>
<path d="M12.5781 24.0003C12.677 23.9273 12.7899 23.9809 12.8937 23.9672C12.9057 23.9742 12.9096 23.9816 12.906 23.989C12.9025 23.9964 12.8983 24.0003 12.8944 24.0003H12.5781Z" fill="#444444"/>
<path d="M13.4203 23.9658C13.4203 23.9771 13.4203 23.9889 13.4203 24.0011H13.1379C13.1266 23.9937 13.1227 23.9859 13.1263 23.9782C13.1298 23.9704 13.1337 23.9669 13.1376 23.9669L13.4203 23.9658Z" fill="#232323"/>
<path d="M16.9006 23.9658L17.183 23.9679C17.1936 23.9757 17.1971 23.9827 17.1932 23.9894C17.1893 23.9961 17.1854 23.9997 17.1819 23.9997H16.8995C16.8879 23.9919 16.8843 23.9842 16.8882 23.9768C16.8921 23.9693 16.8967 23.9658 16.9006 23.9658Z" fill="#333333"/>
<path d="M13.1397 23.9658C13.1397 23.9771 13.1397 23.9884 13.1397 24.0011H12.8926C12.8926 23.9898 12.8926 23.9789 12.8926 23.9679L13.1397 23.9658Z" fill="#333333"/>
<path d="M16.8994 23.9668C16.8994 23.9781 16.8994 23.9894 16.8994 24.0021H16.6523C16.6523 23.9904 16.6523 23.9788 16.6523 23.9668H16.8994Z" fill="#222222"/>
<path d="M17.1816 24.0001C17.1816 23.9895 17.1816 23.9789 17.1816 23.9683C17.2635 23.9764 17.3525 23.9331 17.4266 24.0001H17.1816Z" fill="#444444"/>
<path d="M12.1211 24.0002C12.1497 23.9731 12.1876 23.958 12.227 23.958C12.2664 23.958 12.3043 23.9731 12.3329 24.0002H12.1211Z" fill="#909090"/>
<path d="M17.6035 23.9999C17.6741 23.9477 17.7447 23.9431 17.8153 23.9999H17.6035Z" fill="#7F7F7F"/>
<path d="M23.9713 11.2875C23.9667 11.2586 23.9561 11.2269 24.0002 11.2188V11.2893C23.99 11.3055 23.9801 11.3041 23.9713 11.2875Z" fill="#969696"/>
<path d="M23.9711 11.2878C23.9807 11.2869 23.9904 11.2869 24 11.2878V11.3583C23.9898 11.3749 23.9799 11.3735 23.9707 11.3583L23.9711 11.2878Z" fill="#7C7C7C"/>
<path d="M23.9711 11.3584C23.9809 11.3584 23.9908 11.3584 24.0004 11.3584V11.4289C23.9898 11.4455 23.9799 11.4441 23.9707 11.4289L23.9711 11.3584Z" fill="#676767"/>
<path d="M23.9711 11.4277H24.0008V11.4983C23.9669 11.4856 23.9658 11.4581 23.9711 11.4277Z" fill="#545454"/>
<path d="M23.9705 18.383C23.9659 18.3531 23.9684 18.3259 24.0005 18.3125V18.383C23.9913 18.3964 23.9815 18.3989 23.9705 18.383Z" fill="#464646"/>
<path d="M23.9688 18.3828H23.9988V18.4533C23.9896 18.4681 23.98 18.4696 23.9695 18.4533C23.9691 18.4297 23.9691 18.4061 23.9688 18.3828Z" fill="#5B5B5B"/>
<path d="M23.9707 18.4531H24V18.5236C23.9908 18.5388 23.9809 18.5392 23.9707 18.5236V18.4531Z" fill="#6F6F6F"/>
<path d="M23.9707 18.5234C23.9806 18.5234 23.9905 18.5234 24 18.5234V18.594C23.9908 18.6095 23.9809 18.6098 23.9707 18.594V18.5234Z" fill="#838383"/>
<path d="M23.9694 18.5938H23.9987V18.6643C23.9546 18.6544 23.9644 18.623 23.9694 18.5938Z" fill="#979797"/>
<path d="M18.0254 23.9995C18.0487 23.9481 18.0723 23.9481 18.096 23.9995H18.0254Z" fill="#BABABA"/>
</g>
<circle cx="15" cy="15" r="15" fill="#0165FC"/>
<path d="M24 11.1137C23.9647 10.9892 23.9742 10.8598 23.9679 10.7332C23.9326 9.90442 23.6877 9.09806 23.2559 8.38943C22.4829 7.12674 21.3298 6.41482 19.8826 6.1479C19.1227 6.00685 18.3553 6.01531 17.5908 6.01073C15.5355 5.99839 13.4801 5.98993 11.4251 6.02483C10.8568 6.0305 10.2912 6.10509 9.74077 6.24698C8.88482 6.473 8.12665 6.8718 7.50083 7.50262C6.76666 8.2431 6.35686 9.14719 6.1652 10.1595C6.02401 10.9099 6.00918 11.6715 6.00848 12.4303C6.00636 14.3785 5.98342 16.3263 6.0233 18.2745C6.03636 18.9247 6.08189 19.5707 6.23508 20.205C6.46345 21.1433 6.89443 21.9719 7.60849 22.6289C8.58762 23.5301 9.77324 23.9208 11.0881 23.9663C11.3147 23.9741 11.542 23.9663 11.7675 24.0016H12.1187C12.1522 23.9872 12.1882 23.9797 12.2246 23.9797C12.261 23.9797 12.2971 23.9872 12.3305 24.0016H12.5776C12.6835 23.9628 12.7943 23.9931 12.9023 23.9832H13.4318C13.7208 23.9938 14.0106 23.9614 14.299 24.0016H15.7755C16.0642 23.9614 16.3551 23.9938 16.6445 23.9832H17.169C17.2551 23.9924 17.3437 23.9631 17.4274 24.0016H17.6039C17.6373 23.9871 17.6733 23.9796 17.7098 23.9796C17.7462 23.9796 17.7822 23.9871 17.8156 24.0016H18.0274C18.0317 23.9963 18.037 23.992 18.0431 23.9891C18.0492 23.9861 18.0559 23.9846 18.0627 23.9846C18.0695 23.9846 18.0762 23.9861 18.0823 23.9891C18.0884 23.992 18.0938 23.9963 18.098 24.0016H18.2039C18.3116 23.9628 18.4231 23.9882 18.5325 23.9843C19.0528 23.966 19.572 23.9473 20.0856 23.8344C21.2303 23.583 22.1935 23.0358 22.9224 22.1088C23.5842 21.2671 23.9044 20.2981 23.9714 19.2371C23.9795 19.1049 23.9714 18.9702 24.0046 18.8397V18.6634C23.9806 18.6408 23.9884 18.6116 23.9866 18.5841V18.3915C23.9884 18.364 23.9806 18.3344 24.0046 18.3122V11.4998C23.9809 11.4783 23.988 11.449 23.9866 11.4222V11.297C23.9866 11.2699 23.9809 11.241 24.0046 11.2191L24 11.1137ZM22.3813 18.1786C22.3619 18.7628 22.34 19.3471 22.1819 19.9162C21.8289 21.1913 20.9842 21.9406 19.7023 22.21C18.9003 22.3781 18.0825 22.3556 17.2696 22.3746C16.5262 22.3923 15.7818 22.3785 15.0381 22.3785C13.7434 22.3824 12.4487 22.3993 11.1555 22.3147C10.4538 22.2685 9.77289 22.1313 9.17426 21.7392C8.34548 21.1969 7.93392 20.3937 7.79768 19.437C7.65437 18.4314 7.67837 17.4173 7.66884 16.4046C7.65543 14.9589 7.65296 13.5132 7.69284 12.0675C7.71014 11.4367 7.71967 10.803 7.87815 10.186C8.22265 8.84606 9.10154 8.07032 10.446 7.81538C11.3365 7.64649 12.2419 7.67223 13.143 7.66306C14.7187 7.64684 16.2947 7.64402 17.87 7.67575C18.5308 7.68915 19.1943 7.69867 19.8424 7.85523C21.2063 8.18457 22.0777 9.15636 22.2779 10.5636C22.4035 11.4413 22.4011 12.3267 22.4074 13.2082C22.4205 14.8665 22.4367 16.5227 22.3813 18.1786Z" fill="white"/>
<path d="M19.8411 9.13772C19.9832 9.13677 20.124 9.16415 20.2554 9.21826C20.3867 9.27236 20.5059 9.35211 20.606 9.45283C20.7061 9.55354 20.7851 9.6732 20.8383 9.80479C20.8915 9.93639 20.9179 10.0773 20.9159 10.2192C20.9159 10.361 20.8877 10.5013 20.8329 10.6322C20.7782 10.763 20.698 10.8817 20.597 10.9813C20.496 11.081 20.3762 11.1596 20.2446 11.2126C20.113 11.2657 19.9721 11.2921 19.8302 11.2904C19.5466 11.2874 19.2756 11.1732 19.0757 10.9723C18.8758 10.7714 18.763 10.5 18.7617 10.2167C18.7608 10.0748 18.7881 9.93414 18.842 9.80285C18.8959 9.67157 18.9753 9.55228 19.0758 9.45191C19.1762 9.35154 19.2955 9.27208 19.4269 9.21815C19.5583 9.16421 19.6991 9.13688 19.8411 9.13772Z" fill="white"/>
<path d="M15.0362 10.3955C13.8103 10.3957 12.6346 10.8819 11.7673 11.7473C10.8999 12.6127 10.4118 13.7866 10.4102 15.0112C10.4084 17.5549 12.4821 19.6303 15.0319 19.6321C17.5818 19.6339 19.6534 17.5655 19.6558 15.015C19.6563 14.4086 19.5372 13.8081 19.3053 13.2477C19.0734 12.6873 18.7332 12.178 18.3042 11.749C17.8752 11.32 17.3657 10.9797 16.805 10.7474C16.2442 10.5152 15.6432 10.3956 15.0362 10.3955ZM15.0333 18.0038C14.6405 18.0048 14.2513 17.9284 13.888 17.7789C13.5248 17.6294 13.1946 17.4097 12.9164 17.1326C12.6383 16.8554 12.4176 16.5261 12.2671 16.1636C12.1165 15.8011 12.0391 15.4125 12.0391 15.02C12.0371 14.626 12.1132 14.2355 12.263 13.8711C12.4128 13.5066 12.6333 13.1754 12.9118 12.8964C13.1904 12.6175 13.5214 12.3965 13.8859 12.246C14.2504 12.0955 14.6411 12.0186 15.0355 12.0196C15.4298 12.0187 15.8205 12.0959 16.1849 12.2465C16.5493 12.3972 16.8802 12.6185 17.1586 12.8976C17.4369 13.1767 17.6572 13.5081 17.8067 13.8727C17.9563 14.2372 18.032 14.6278 18.0297 15.0217C18.0297 15.4143 17.952 15.8031 17.8013 16.1656C17.6506 16.5282 17.4297 16.8575 17.1514 17.1346C16.873 17.4117 16.5426 17.6313 16.1792 17.7806C15.8157 17.9299 15.4263 18.0061 15.0333 18.0048V18.0038Z" fill="white"/>
</g>
<defs>
<clipPath id="clip0_1254_4860">
<rect width="18" height="18" fill="white" transform="translate(6 6)"/>
</clipPath>
</defs>
</svg>
