<svg width="279" height="105" viewBox="0 0 279 105" fill="none" xmlns="http://www.w3.org/2000/svg">
<path d="M28.2492 34.8581C26.1017 33.1499 23.0623 32.2959 19.131 32.2959H6.30281L0 63.8056H7.33728L9.08321 54.9843H15.2856L20.2528 63.8056H27.9524L22.4527 54.1026C23.0721 53.9102 23.6786 53.6784 24.2684 53.4086C26.4386 52.4647 28.2852 50.9065 29.5804 48.9259C30.8664 46.8707 31.5219 44.4837 31.466 42.06C31.466 38.9697 30.3938 36.5691 28.2492 34.8581ZM22.0817 47.5161C20.746 48.6102 18.8633 49.1572 16.4336 49.1572H10.2399L12.4223 38.219H18.1795C20.0389 38.219 21.4939 38.5871 22.5443 39.3233C23.5788 40.0566 24.0982 41.1914 24.0982 42.7191C24.0895 44.8346 23.4188 46.4394 22.086 47.5335L22.0817 47.5161Z" fill="black"/>
<path d="M53.5128 40.5543C51.6109 39.6325 49.5147 39.1833 47.4021 39.2448C44.8087 39.1912 42.2477 39.8284 39.9819 41.0912C37.8802 42.2801 36.1385 44.0143 34.9405 46.1107C33.7038 48.3146 33.0756 50.8077 33.1204 53.3345C33.0709 55.3475 33.6012 57.3323 34.648 59.0524C35.6936 60.6947 37.1847 62.0057 38.9474 62.8324C40.9986 63.7749 43.238 64.2362 45.4946 64.1811C47.3158 64.1823 49.1274 63.9177 50.8721 63.3954C52.5964 62.8864 54.208 62.0539 55.621 60.9424L52.6966 56.307C51.842 57.0525 50.8459 57.6181 49.7678 57.9699C48.6244 58.3617 47.4235 58.5594 46.2148 58.5548C44.111 58.5548 42.5426 58.098 41.5096 57.1843C40.5886 56.3724 40.1041 55.1634 39.9993 53.6051H58.5018C58.624 53.0333 58.7201 52.4353 58.7943 51.8024C58.8692 51.1752 58.9071 50.5441 58.9078 49.9125C58.9727 47.9294 58.4877 45.9671 57.5066 44.2426C56.5527 42.6588 55.1674 41.3794 53.5128 40.5543ZM43.1944 45.5957C44.3477 44.8363 45.7076 44.4521 47.0878 44.4957C48.1852 44.4624 49.272 44.7183 50.2392 45.2377C51.0867 45.7121 51.7518 46.4555 52.1292 47.3503C52.3965 48.0302 52.5142 48.7597 52.474 49.4891H40.4795C40.5711 49.201 40.6671 48.9129 40.785 48.6161C41.2763 47.3958 42.1138 46.3459 43.1944 45.5957Z" fill="black"/>
<path d="M82.6316 42.854C81.9834 41.7897 81.0547 40.9244 79.9473 40.353C78.3384 39.5639 76.5619 39.1775 74.7706 39.2269C72.9703 39.2118 71.1865 39.5715 69.5328 40.2831C67.9104 40.9845 66.4437 42.0018 65.2185 43.2757C63.9933 44.5497 63.0339 46.0548 62.3963 47.7033C61.705 49.4976 61.3613 51.4069 61.3837 53.3296C61.3243 55.3752 61.8222 57.3984 62.824 59.1828C63.7309 60.752 65.0563 62.038 66.652 62.8973C68.4224 63.8092 70.3996 64.2448 72.3892 64.1614C74.3789 64.078 76.3127 63.4784 78.0006 62.4215C78.4432 62.1192 78.8633 61.7851 79.2576 61.422L78.8299 63.8052H85.495L90.2963 39.5848H83.282L82.6316 42.854ZM77.6732 57.3365C76.575 58.0223 75.3012 58.3742 74.0067 58.3492C72.2608 58.3492 70.9033 57.869 69.9344 56.9088C68.9654 55.9485 68.4765 54.6391 68.4678 52.9804C68.4343 51.5379 68.7518 50.1089 69.3931 48.8164C69.9708 47.6706 70.8507 46.7046 71.9378 46.0229C73.0315 45.3452 74.2959 44.9939 75.5824 45.0103C77.3284 45.0103 78.6858 45.4904 79.6548 46.4506C80.6238 47.4109 81.1112 48.7203 81.117 50.379C81.151 51.821 80.835 53.2498 80.1961 54.543C79.6219 55.6843 78.7503 56.6494 77.6732 57.3365Z" fill="black"/>
<path d="M116.231 30.4014L113.748 42.8062C113.034 41.6869 112.021 40.7902 110.823 40.2179C109.283 39.5245 107.606 39.1859 105.917 39.227C104.117 39.212 102.333 39.5717 100.679 40.2833C99.0568 40.9847 97.5902 42.002 96.365 43.2759C95.1397 44.5499 94.1804 46.055 93.5428 47.7035C92.8515 49.4978 92.5078 51.4071 92.5301 53.3298C92.4708 55.3754 92.9687 57.3986 93.9705 59.183C94.8774 60.7522 96.2028 62.0382 97.7985 62.8975C99.3999 63.7266 101.175 64.1648 102.978 64.1762C104.782 64.1876 106.562 63.7718 108.174 62.963C108.978 62.5298 109.727 62.0007 110.404 61.3873L109.907 63.8185H116.567L123.232 30.4145L116.231 30.4014ZM108.811 57.3454C107.713 58.0308 106.439 58.3826 105.144 58.3581C103.399 58.3581 102.04 57.878 101.068 56.9177C100.567 56.3989 100.178 55.7821 99.9265 55.1062C99.6749 54.4302 99.5656 53.7095 99.6055 52.9894C99.572 51.5469 99.8896 50.1178 100.531 48.8253C101.107 47.6797 101.985 46.7136 103.071 46.0318C104.166 45.354 105.432 45.0027 106.72 45.0192C108.466 45.0192 109.819 45.4993 110.793 46.4596C111.766 47.4198 112.255 48.7293 112.255 50.3879C112.289 51.8299 111.973 53.2587 111.334 54.552C110.761 55.6875 109.894 56.649 108.824 57.3367L108.811 57.3454Z" fill="black"/>
<path d="M145.039 39.585L134.948 56.0796L131.355 39.585H124.332L129.937 63.884L129.688 64.2724C129.192 65.1707 128.51 65.9532 127.689 66.5683C126.986 67.026 126.162 67.2617 125.323 67.2449C124.59 67.254 123.863 67.116 123.184 66.8389C122.546 66.5783 121.956 66.2124 121.438 65.7565L118.195 70.8022C119.051 71.5029 120.04 72.0227 121.102 72.3299C123.655 73.1393 126.399 73.1087 128.933 72.2426C130.242 71.7279 131.424 70.9357 132.398 69.9205C133.703 68.5554 134.858 67.054 135.842 65.4422L151.957 39.6024L145.039 39.585Z" fill="black"/>
<path d="M200.923 32.2959L180.578 63.8056H188.387L192.503 57.0532H207.156L208.635 63.8056H215.929L208.186 32.2959H200.923ZM195.859 51.5011L203.28 39.3582L205.942 51.5011H195.859Z" fill="black"/>
<path d="M242.382 40.5099C240.607 39.5927 238.623 39.1538 236.626 39.2364C234.629 39.3191 232.688 39.9204 230.995 40.9813C230.552 41.2791 230.132 41.6088 229.737 41.9677L230.226 39.5845H223.566L216.992 72.539H224.015L226.411 60.5532C227.076 61.6099 228.012 62.469 229.122 63.0411C230.706 63.8175 232.453 64.2022 234.216 64.1629C235.992 64.181 237.753 63.8352 239.39 63.1468C241.027 62.4585 242.506 61.4421 243.735 60.1603C244.973 58.8669 245.945 57.3441 246.599 55.6777C247.296 53.8922 247.646 51.9899 247.629 50.0732C247.694 48.0215 247.196 45.9911 246.189 44.2025C245.284 42.6451 243.967 41.3674 242.382 40.5099ZM239.615 54.5559C239.043 55.6905 238.18 56.653 237.114 57.345C236.01 58.0366 234.728 58.3887 233.426 58.3577C231.68 58.3577 230.328 57.8775 229.371 56.9173C228.414 55.957 227.933 54.6476 227.93 52.9889C227.897 51.5488 228.206 50.1214 228.834 48.8249C229.398 47.6778 230.27 46.7105 231.352 46.0314C232.446 45.3542 233.711 45.0029 234.997 45.0187C236.769 45.0187 238.135 45.4989 239.096 46.4591C240.056 47.4194 240.536 48.7288 240.536 50.3875C240.571 51.831 240.255 53.2614 239.615 54.5559Z" fill="black"/>
<path d="M277.271 44.2035C276.357 42.6454 275.033 41.368 273.443 40.5109C271.667 39.5936 269.683 39.1547 267.687 39.2374C265.69 39.32 263.749 39.9214 262.055 40.9823C261.613 41.2801 261.193 41.6098 260.798 41.9687L261.287 39.5855H254.626L248.053 72.54H255.076L257.472 60.5541C258.138 61.6114 259.076 62.4706 260.187 63.0421C261.774 63.8217 263.526 64.2065 265.294 64.1639C267.104 64.1821 268.899 63.8224 270.562 63.1076C272.162 62.4165 273.608 61.4151 274.818 60.1613C276.052 58.8674 277.022 57.3446 277.672 55.6786C278.377 53.895 278.73 51.9918 278.711 50.0742C278.776 48.0224 278.278 45.9921 277.271 44.2035ZM270.676 54.5569C270.104 55.6904 269.242 56.6526 268.179 57.346C267.073 58.037 265.79 58.389 264.486 58.3586C262.74 58.3586 261.389 57.8785 260.431 56.9182C259.474 55.958 258.994 54.6485 258.991 52.9899C258.957 51.5498 259.267 50.1224 259.895 48.8258C260.458 47.6788 261.33 46.7115 262.413 46.0324C263.508 45.3546 264.774 45.0033 266.062 45.0197C267.828 45.0197 269.193 45.4998 270.156 46.4601C271.119 47.4204 271.6 48.7298 271.597 50.3885C271.629 51.8317 271.313 53.2616 270.676 54.5569Z" fill="black"/>
<path d="M145.475 64.5302C141.804 71.2127 136.444 83.1942 136.444 83.1942C114.69 78.6242 92.7129 74.1677 92.7129 74.1677L93.1188 74.4209C111.307 81.9371 145.139 104.708 145.139 104.708L146.012 102.124C146.959 99.3091 148.137 96.3934 149.333 93.5737C150.529 90.754 151.813 87.8995 153.179 85.1409C155.903 79.5913 158.907 74.1835 162.179 68.9386C165.416 63.6766 168.953 58.605 172.773 53.749C174.687 51.328 176.659 48.9521 178.687 46.6213C180.715 44.2905 182.813 42.0426 184.981 39.8776C187.163 37.6952 189.424 35.5957 191.742 33.5617C194.06 31.5277 196.43 29.5504 198.887 27.6779C201.345 25.8054 203.863 24.0202 206.46 22.3397C209.057 20.6593 211.698 19.0399 214.4 17.5384C219.837 14.5398 225.491 11.9516 231.314 9.79522C233.06 9.14922 234.805 8.55562 236.551 7.99256H236.573L237.119 7.8005C237.826 7.5779 238.542 7.36402 239.249 7.14578C246.839 4.96336 264.853 0.895341 264.853 0.895341C264.853 0.895341 191.794 -9.81594 145.475 64.5302Z" fill="#0165FC"/>
<path d="M166.775 85.197C166.759 84.73 166.84 84.2646 167.013 83.8304C167.186 83.3962 167.447 83.0026 167.779 82.6744C168.112 82.3463 168.509 82.0907 168.946 81.9238C169.382 81.757 169.849 81.6825 170.315 81.7051C172.061 81.7051 173.078 82.7134 173.078 84.1713C173.095 84.6383 173.014 85.1036 172.841 85.5378C172.668 85.972 172.407 86.3657 172.074 86.6938C171.742 87.022 171.345 87.2776 170.908 87.4445C170.472 87.6113 170.005 87.6858 169.538 87.6631C167.797 87.6631 166.775 86.6548 166.775 85.197ZM172.013 84.2542C172.013 83.307 171.389 82.6654 170.232 82.6654C169.912 82.6619 169.595 82.7242 169.3 82.8483C169.005 82.9723 168.739 83.1556 168.517 83.3868C168.296 83.6179 168.124 83.892 168.013 84.1921C167.902 84.4922 167.854 84.812 167.871 85.1315C167.871 86.0787 168.491 86.7247 169.648 86.7247C169.967 86.7257 170.283 86.6616 170.576 86.5363C170.87 86.4109 171.134 86.2269 171.354 85.9956C171.574 85.7643 171.744 85.4906 171.855 85.1911C171.965 84.8917 172.013 84.5729 171.996 84.2542H172.013Z" fill="black"/>
<path d="M178.377 84.6124C178.374 84.7898 178.355 84.9666 178.32 85.1406L177.836 87.5805H176.801L177.281 85.1624C177.303 85.0518 177.314 84.9391 177.312 84.8263C177.312 84.3156 177.033 84.0276 176.439 84.0276C176.081 84.0117 175.731 84.1352 175.463 84.3721C175.194 84.6089 175.028 84.9408 174.999 85.2977L174.536 87.5805H173.506L174.379 83.1764H175.361L175.261 83.6609C175.682 83.299 176.224 83.1075 176.779 83.124C177.744 83.124 178.377 83.6478 178.377 84.6124Z" fill="black"/>
<path d="M184.282 85.0576C184.298 85.3918 184.246 85.7257 184.129 86.039C184.011 86.3523 183.831 86.6384 183.6 86.8798C183.368 87.1212 183.09 87.3129 182.782 87.4431C182.474 87.5733 182.142 87.6394 181.808 87.6372C181.505 87.6662 181.2 87.6105 180.927 87.4764C180.655 87.3423 180.424 87.135 180.262 86.8777L180.123 87.5805H179.141L180.363 81.4697H181.402L180.965 83.5954C181.353 83.2847 181.839 83.1209 182.336 83.1327C182.593 83.1178 182.851 83.1571 183.093 83.2483C183.334 83.3394 183.554 83.4803 183.738 83.6618C183.921 83.8433 184.064 84.0613 184.158 84.3018C184.252 84.5423 184.294 84.7998 184.282 85.0576ZM183.244 85.1056C183.254 84.9525 183.231 84.7988 183.176 84.6557C183.12 84.5126 183.033 84.3836 182.922 84.278C182.81 84.1724 182.677 84.0928 182.531 84.045C182.385 83.9971 182.23 83.9822 182.078 84.0013C181.868 84.0025 181.66 84.047 181.467 84.132C181.275 84.2171 181.102 84.3409 180.96 84.4957C180.817 84.6505 180.708 84.833 180.639 85.0318C180.57 85.2306 180.543 85.4414 180.559 85.6512C180.548 85.8044 180.572 85.958 180.627 86.1011C180.683 86.2442 180.769 86.3732 180.881 86.4788C180.992 86.5844 181.126 86.664 181.272 86.7119C181.418 86.7597 181.572 86.7746 181.725 86.7555C181.935 86.7544 182.143 86.7099 182.335 86.6248C182.528 86.5397 182.701 86.416 182.843 86.2612C182.986 86.1064 183.095 85.9239 183.164 85.7251C183.233 85.5263 183.26 85.3154 183.244 85.1056Z" fill="black"/>
<path d="M184.841 85.7083C184.832 85.3641 184.894 85.0217 185.023 84.7024C185.152 84.3831 185.346 84.0938 185.591 83.8524C185.837 83.6109 186.129 83.4225 186.451 83.2987C186.772 83.175 187.115 83.1186 187.46 83.1331C188.769 83.1331 189.603 83.8926 189.603 85.0667C189.611 85.411 189.548 85.7533 189.419 86.0725C189.29 86.3917 189.096 86.681 188.851 86.9227C188.606 87.1643 188.313 87.3532 187.992 87.4777C187.671 87.6021 187.328 87.6595 186.984 87.6463C185.679 87.6376 184.841 86.865 184.841 85.7083ZM188.559 85.1147C188.57 84.962 188.547 84.8087 188.492 84.666C188.436 84.5233 188.35 84.3945 188.239 84.289C188.128 84.1835 187.995 84.1038 187.85 84.0556C187.705 84.0074 187.55 83.992 187.398 84.0104C187.188 84.0109 186.98 84.055 186.787 84.1398C186.594 84.2247 186.421 84.3484 186.278 84.5034C186.136 84.6583 186.027 84.8411 185.958 85.0402C185.889 85.2393 185.863 85.4504 185.879 85.6603C185.869 85.8131 185.892 85.9663 185.947 86.109C186.003 86.2518 186.089 86.3805 186.2 86.486C186.311 86.5916 186.444 86.6712 186.589 86.7194C186.734 86.7676 186.889 86.783 187.041 86.7646C187.252 86.7642 187.461 86.7199 187.654 86.6345C187.848 86.5492 188.021 86.4246 188.164 86.2687C188.307 86.1128 188.416 85.929 188.484 85.7288C188.552 85.5287 188.578 85.3166 188.559 85.106V85.1147Z" fill="black"/>
<path d="M195.296 83.1769L194.424 87.581H193.441L193.533 87.1446C193.136 87.4894 192.623 87.6718 192.097 87.6552C191.839 87.6691 191.581 87.6285 191.339 87.536C191.098 87.4435 190.879 87.3012 190.696 87.1184C190.513 86.9356 190.371 86.7164 190.278 86.475C190.186 86.2336 190.145 85.9754 190.159 85.7173C190.143 85.3826 190.196 85.0481 190.313 84.7344C190.431 84.4208 190.612 84.1346 190.845 83.8934C191.077 83.6522 191.357 83.4611 191.666 83.3319C191.975 83.2027 192.308 83.1381 192.643 83.142C192.933 83.1167 193.224 83.1683 193.488 83.2917C193.751 83.4151 193.978 83.6059 194.144 83.8448L194.266 83.1944L195.296 83.1769ZM193.882 85.1062C193.893 84.953 193.87 84.7994 193.814 84.6563C193.759 84.5132 193.672 84.3842 193.561 84.2786C193.449 84.173 193.316 84.0934 193.17 84.0455C193.024 83.9977 192.869 83.9828 192.717 84.0019C192.506 84.0031 192.299 84.0476 192.106 84.1326C191.914 84.2177 191.741 84.3415 191.598 84.4962C191.456 84.651 191.347 84.8335 191.278 85.0323C191.209 85.2311 191.182 85.442 191.198 85.6518C191.187 85.8049 191.21 85.9586 191.266 86.1017C191.322 86.2448 191.408 86.3738 191.52 86.4794C191.631 86.585 191.765 86.6646 191.91 86.7124C192.056 86.7603 192.211 86.7752 192.363 86.7561C192.574 86.7549 192.782 86.7104 192.974 86.6254C193.167 86.5403 193.339 86.4165 193.482 86.2617C193.624 86.1069 193.734 85.9245 193.802 85.7257C193.871 85.5268 193.898 85.316 193.882 85.1062Z" fill="black"/>
<path d="M199.215 83.1247L199.023 84.1068C198.94 84.0928 198.855 84.0855 198.77 84.0849C198.395 84.0607 198.025 84.184 197.74 84.4287C197.454 84.6734 197.276 85.0199 197.242 85.3944L196.806 87.5768H195.771L196.644 83.1727H197.627L197.509 83.7401C197.728 83.5154 197.996 83.3433 198.291 83.2367C198.587 83.1302 198.903 83.0918 199.215 83.1247Z" fill="black"/>
<path d="M204.68 81.4609L203.462 87.5717H202.476L202.568 87.1352C202.171 87.4762 201.663 87.6581 201.14 87.6459C200.882 87.6604 200.623 87.6203 200.382 87.528C200.14 87.4358 199.921 87.2935 199.738 87.1106C199.555 86.9276 199.412 86.7081 199.32 86.4664C199.228 86.2247 199.188 85.9662 199.202 85.7079C199.186 85.3738 199.237 85.0398 199.355 84.7265C199.472 84.4131 199.652 84.127 199.884 83.8858C200.115 83.6446 200.394 83.4534 200.702 83.3239C201.011 83.1943 201.343 83.1293 201.677 83.1327C201.965 83.1072 202.255 83.157 202.518 83.2771C202.782 83.3972 203.009 83.5836 203.179 83.818L203.65 81.4697L204.68 81.4609ZM202.934 85.1056C202.945 84.9524 202.922 84.7988 202.866 84.6557C202.811 84.5126 202.724 84.3836 202.612 84.278C202.501 84.1724 202.368 84.0928 202.222 84.0449C202.076 83.9971 201.921 83.9822 201.769 84.0013C201.559 84.0023 201.351 84.0469 201.159 84.132C200.967 84.2172 200.795 84.3411 200.653 84.496C200.511 84.651 200.403 84.8336 200.335 85.0324C200.267 85.2312 200.241 85.4418 200.259 85.6512C200.248 85.8043 200.271 85.958 200.327 86.1011C200.382 86.2442 200.469 86.3732 200.58 86.4788C200.692 86.5844 200.825 86.664 200.971 86.7118C201.117 86.7597 201.272 86.7746 201.424 86.7555C201.633 86.752 201.838 86.7058 202.028 86.6196C202.218 86.5334 202.388 86.4091 202.528 86.2544C202.668 86.0997 202.775 85.9179 202.842 85.7203C202.909 85.5227 202.934 85.3135 202.917 85.1056H202.934Z" fill="black"/>
<path d="M205.692 83.1764H206.718L205.845 87.5806H204.814L205.692 83.1764ZM205.823 81.867C205.823 81.7766 205.841 81.6872 205.877 81.6043C205.913 81.5213 205.965 81.4466 206.031 81.3848C206.097 81.323 206.175 81.2754 206.26 81.245C206.345 81.2145 206.435 81.2019 206.525 81.2079C206.605 81.1999 206.686 81.2088 206.762 81.234C206.838 81.2591 206.908 81.3 206.967 81.3539C207.026 81.4078 207.074 81.4736 207.106 81.5469C207.138 81.6203 207.154 81.6996 207.154 81.7797C207.157 81.8719 207.141 81.9637 207.107 82.0492C207.072 82.1348 207.02 82.2122 206.954 82.2763C206.888 82.3405 206.809 82.3901 206.722 82.4218C206.636 82.4536 206.543 82.4668 206.451 82.4606C206.372 82.4636 206.293 82.4505 206.22 82.4221C206.146 82.3938 206.079 82.3508 206.022 82.2957C205.965 82.2406 205.92 82.1746 205.89 82.1017C205.859 82.0288 205.844 81.9504 205.845 81.8713L205.823 81.867Z" fill="black"/>
<path d="M212.082 84.6124C212.078 84.7898 212.059 84.9666 212.025 85.1406L211.54 87.5805H210.506L210.986 85.1624C211.009 85.0519 211.021 84.9393 211.021 84.8263C211.021 84.3156 210.737 84.0276 210.148 84.0276C209.79 84.0117 209.44 84.1352 209.172 84.3721C208.903 84.6089 208.737 84.9408 208.708 85.2977L208.245 87.5805H207.215L208.088 83.1764H209.07L208.969 83.6609C209.391 83.299 209.933 83.1075 210.488 83.124C211.449 83.124 212.082 83.6478 212.082 84.6124Z" fill="black"/>
<path d="M218.144 83.1764L217.393 86.9127C217.062 88.5539 216.162 89.2392 214.67 89.2392C213.935 89.2753 213.209 89.0631 212.609 88.6368L213.142 87.8599C213.6 88.2029 214.163 88.3786 214.735 88.3575C215.7 88.3575 216.162 87.921 216.328 87.0873L216.367 86.8734C215.966 87.2142 215.454 87.3958 214.927 87.3841C213.779 87.3841 212.954 86.6901 212.954 85.5596C212.95 85.2331 213.013 84.9093 213.138 84.6078C213.263 84.3063 213.449 84.0333 213.682 83.8055C213.916 83.5777 214.194 83.3999 214.499 83.2827C214.804 83.1656 215.129 83.1116 215.455 83.124C215.761 83.0984 216.068 83.1573 216.343 83.2943C216.618 83.4313 216.85 83.6412 217.013 83.901L217.153 83.1764H218.144ZM216.664 85.0053C216.664 84.3898 216.228 84.0014 215.512 84.0014C215.312 83.9929 215.112 84.0258 214.925 84.098C214.738 84.1702 214.568 84.2802 214.425 84.4211C214.283 84.562 214.171 84.7308 214.096 84.9169C214.022 85.103 213.987 85.3025 213.993 85.5029C213.993 86.1227 214.43 86.5068 215.158 86.5068C215.358 86.5154 215.557 86.4825 215.744 86.4101C215.93 86.3378 216.099 86.2276 216.241 86.0864C216.382 85.9453 216.493 85.7764 216.566 85.5903C216.639 85.4042 216.672 85.205 216.664 85.0053Z" fill="black"/>
<path d="M228.799 84.5953C228.799 84.7788 228.778 84.9617 228.738 85.1409L228.254 87.5808H227.232L227.717 85.1627C227.74 85.0493 227.752 84.9337 227.752 84.8179C227.752 84.3072 227.477 84.0278 226.909 84.0278C226.198 84.0278 225.731 84.4294 225.556 85.2893L225.093 87.5808H224.063L224.552 85.1627C224.573 85.0489 224.583 84.9335 224.583 84.8179C224.583 84.3072 224.312 84.0278 223.74 84.0278C223.033 84.0278 222.562 84.4294 222.387 85.298L221.925 87.5808H220.895L221.767 83.1767H222.745L222.658 83.6525C223.053 83.2965 223.571 83.1072 224.103 83.1243C224.376 83.1009 224.651 83.1573 224.894 83.2867C225.136 83.416 225.336 83.6128 225.469 83.8532C225.691 83.6142 225.962 83.4255 226.263 83.2998C226.564 83.174 226.889 83.1142 227.215 83.1243C228.179 83.1243 228.799 83.6394 228.799 84.5953Z" fill="black"/>
<path d="M234.793 83.1769L233.92 87.581H232.938L233.029 87.1446C232.632 87.4894 232.119 87.6718 231.593 87.6552C231.335 87.6691 231.077 87.6285 230.835 87.536C230.594 87.4435 230.375 87.3012 230.192 87.1184C230.009 86.9356 229.867 86.7164 229.774 86.475C229.682 86.2336 229.641 85.9754 229.655 85.7173C229.639 85.3826 229.692 85.0481 229.81 84.7344C229.927 84.4208 230.108 84.1346 230.341 83.8934C230.574 83.6522 230.853 83.4611 231.162 83.3319C231.471 83.2027 231.804 83.1381 232.139 83.142C232.429 83.1167 232.72 83.1683 232.984 83.2917C233.248 83.4151 233.474 83.6059 233.64 83.8448L233.762 83.1944L234.793 83.1769ZM233.374 85.1062C233.385 84.953 233.362 84.7994 233.306 84.6563C233.25 84.5132 233.164 84.3842 233.052 84.2786C232.941 84.173 232.807 84.0934 232.662 84.0455C232.516 83.9977 232.361 83.9828 232.209 84.0019C231.998 84.0031 231.79 84.0476 231.598 84.1326C231.405 84.2177 231.233 84.3415 231.09 84.4962C230.948 84.651 230.838 84.8335 230.77 85.0323C230.701 85.2311 230.673 85.442 230.69 85.6518C230.679 85.8049 230.702 85.9586 230.758 86.1017C230.813 86.2448 230.9 86.3738 231.011 86.4794C231.123 86.585 231.256 86.6646 231.402 86.7124C231.548 86.7603 231.703 86.7752 231.855 86.7561C232.065 86.7549 232.273 86.7104 232.466 86.6254C232.658 86.5403 232.831 86.4165 232.974 86.2617C233.116 86.1069 233.225 85.9245 233.294 85.7257C233.363 85.5268 233.39 85.316 233.374 85.1062Z" fill="black"/>
<path d="M240.794 81.4609L239.572 87.5717H238.581L238.673 87.1352C238.277 87.4758 237.768 87.6577 237.246 87.6459C236.987 87.6604 236.729 87.6203 236.487 87.528C236.246 87.4358 236.026 87.2935 235.843 87.1106C235.66 86.9276 235.518 86.7081 235.426 86.4664C235.333 86.2247 235.293 85.9662 235.308 85.7079C235.291 85.3738 235.343 85.0398 235.46 84.7265C235.577 84.4131 235.757 84.127 235.989 83.8858C236.221 83.6446 236.5 83.4534 236.808 83.3239C237.116 83.1943 237.448 83.1293 237.783 83.1327C238.071 83.1072 238.361 83.157 238.624 83.2771C238.887 83.3972 239.115 83.5836 239.284 83.818L239.756 81.4697L240.794 81.4609ZM239.018 85.1056C239.029 84.9528 239.005 84.7996 238.95 84.6569C238.895 84.5141 238.808 84.3854 238.698 84.2799C238.587 84.1743 238.454 84.0946 238.308 84.0465C238.163 83.9983 238.009 83.9829 237.857 84.0013C237.647 84.0023 237.439 84.0469 237.247 84.132C237.055 84.2172 236.883 84.3411 236.741 84.496C236.599 84.651 236.491 84.8336 236.423 85.0324C236.355 85.2312 236.329 85.4418 236.347 85.6512C236.336 85.8039 236.359 85.9571 236.414 86.0999C236.47 86.2426 236.556 86.3714 236.667 86.4769C236.778 86.5824 236.911 86.6621 237.056 86.7103C237.201 86.7584 237.356 86.7739 237.508 86.7555C237.718 86.7544 237.925 86.7099 238.117 86.6247C238.309 86.5396 238.482 86.4157 238.623 86.2607C238.765 86.1058 238.874 85.9232 238.941 85.7244C239.009 85.5256 239.035 85.3149 239.018 85.1056Z" fill="black"/>
<path d="M245.477 85.682H241.986C241.986 86.3847 242.422 86.7645 243.256 86.7645C243.719 86.7832 244.172 86.6274 244.526 86.328L244.962 87.0438C244.454 87.4594 243.812 87.6765 243.155 87.6549C241.824 87.6549 240.973 86.8911 240.973 85.7169C240.958 85.3778 241.014 85.0394 241.136 84.7227C241.258 84.406 241.444 84.1178 241.682 83.8762C241.921 83.6345 242.206 83.4446 242.521 83.3183C242.836 83.1919 243.174 83.1318 243.513 83.1417C244.735 83.1417 245.543 83.8706 245.543 85.0753C245.541 85.2792 245.519 85.4824 245.477 85.682ZM242.073 84.9967H244.596C244.604 84.8501 244.579 84.7035 244.523 84.5675C244.468 84.4315 244.383 84.3093 244.275 84.2097C244.168 84.1101 244.039 84.0355 243.899 83.9913C243.759 83.947 243.611 83.9341 243.465 83.9535C243.149 83.9419 242.838 84.0391 242.585 84.2289C242.331 84.4188 242.151 84.6898 242.073 84.9967Z" fill="black"/>
<path d="M247.957 87.1619L248.394 86.3675C248.852 86.6609 249.386 86.8127 249.93 86.804C250.606 86.804 250.925 86.6032 250.925 86.2759C250.925 85.5469 248.542 86.11 248.542 84.6172C248.542 83.6919 249.384 83.1288 250.637 83.1288C251.189 83.1157 251.735 83.2466 252.221 83.5086L251.842 84.303C251.446 84.0692 250.992 83.9512 250.532 83.9625C249.864 83.9625 249.546 84.1938 249.546 84.4994C249.546 85.2589 251.929 84.6914 251.929 86.158C251.929 87.1226 251.056 87.6421 249.816 87.6421C249.163 87.665 248.517 87.4982 247.957 87.1619Z" fill="black"/>
<path d="M253.422 83.1766H254.452L253.579 87.5807H252.549L253.422 83.1766ZM253.553 81.8672C253.553 81.7768 253.571 81.6874 253.607 81.6045C253.643 81.5215 253.695 81.4468 253.761 81.385C253.827 81.3232 253.905 81.2756 253.99 81.2451C254.075 81.2147 254.165 81.2021 254.255 81.2081C254.333 81.2015 254.411 81.2109 254.485 81.2356C254.559 81.2602 254.627 81.2997 254.685 81.3516C254.743 81.4035 254.79 81.4667 254.822 81.5374C254.855 81.608 254.873 81.6846 254.875 81.7624C254.879 81.8546 254.862 81.9464 254.828 82.032C254.794 82.1175 254.741 82.1949 254.675 82.2591C254.609 82.3232 254.53 82.3728 254.443 82.4045C254.357 82.4363 254.265 82.4495 254.173 82.4433C254.095 82.4468 254.017 82.4347 253.944 82.4077C253.871 82.3807 253.804 82.3394 253.747 82.2861C253.69 82.2329 253.644 82.1687 253.612 82.0975C253.58 82.0263 253.563 81.9495 253.561 81.8715L253.553 81.8672Z" fill="black"/>
<path d="M262.852 84.5952C262.853 84.7786 262.834 84.9615 262.795 85.1408L262.31 87.5807H261.28L261.769 85.1626C261.789 85.0488 261.8 84.9334 261.8 84.8178C261.8 84.3071 261.529 84.0277 260.962 84.0277C260.25 84.0277 259.779 84.4293 259.604 85.2892L259.168 87.5807H258.133L258.622 85.1626C258.646 85.0492 258.658 84.9336 258.657 84.8178C258.657 84.3071 258.382 84.0277 257.815 84.0277C257.103 84.0277 256.632 84.4293 256.462 85.2979L255.999 87.5807H254.969L255.842 83.1766H256.824L256.732 83.6524C257.127 83.2964 257.645 83.1071 258.177 83.1242C258.451 83.1011 258.726 83.1575 258.97 83.2868C259.213 83.4161 259.413 83.6127 259.547 83.8531C259.769 83.6134 260.04 83.4243 260.341 83.2985C260.642 83.1727 260.967 83.1133 261.293 83.1242C262.232 83.1242 262.852 83.6393 262.852 84.5952Z" fill="black"/>
<path d="M268.761 85.0574C268.777 85.3916 268.724 85.7255 268.607 86.0388C268.49 86.3521 268.31 86.6382 268.078 86.8796C267.847 87.121 267.568 87.3127 267.26 87.4429C266.952 87.5732 266.62 87.6392 266.286 87.6371C265.993 87.6629 265.699 87.6112 265.434 87.487C265.168 87.3628 264.939 87.1707 264.771 86.9299L264.335 89.1997H263.305L264.501 83.1937H265.483L265.391 83.6563C265.788 83.311 266.301 83.1272 266.827 83.1413C267.083 83.1276 267.339 83.1677 267.579 83.2589C267.818 83.3502 268.036 83.4905 268.218 83.671C268.401 83.8515 268.543 84.0681 268.636 84.3069C268.73 84.5456 268.772 84.8013 268.761 85.0574ZM267.722 85.1054C267.733 84.9527 267.71 84.7995 267.654 84.6567C267.599 84.514 267.513 84.3853 267.402 84.2797C267.291 84.1742 267.158 84.0945 267.012 84.0464C266.867 83.9982 266.713 83.9828 266.561 84.0011C266.35 84.0017 266.142 84.0457 265.949 84.1306C265.757 84.2154 265.583 84.3392 265.441 84.4941C265.298 84.649 265.189 84.8318 265.12 85.0309C265.052 85.23 265.025 85.4411 265.042 85.6511C265.031 85.8038 265.054 85.957 265.11 86.0998C265.165 86.2425 265.251 86.3712 265.362 86.4768C265.473 86.5823 265.606 86.662 265.751 86.7102C265.897 86.7583 266.051 86.7737 266.203 86.7554C266.414 86.7548 266.622 86.7108 266.814 86.6259C267.007 86.5411 267.18 86.4173 267.323 86.2624C267.466 86.1075 267.575 85.9247 267.643 85.7256C267.712 85.5265 267.739 85.3154 267.722 85.1054Z" fill="black"/>
<path d="M270.495 81.4609H271.53L270.307 87.5717H269.277L270.495 81.4609Z" fill="black"/>
<path d="M276.206 85.682H272.714C272.714 86.3847 273.15 86.7645 273.988 86.7645C274.451 86.7828 274.904 86.627 275.258 86.328L275.695 87.0438C275.186 87.4594 274.544 87.6765 273.888 87.6549C272.578 87.6549 271.705 86.8911 271.705 85.7169C271.691 85.3778 271.746 85.0394 271.868 84.7227C271.99 84.406 272.176 84.1178 272.415 83.8762C272.653 83.6345 272.939 83.4446 273.254 83.3183C273.569 83.1919 273.906 83.1318 274.246 83.1417C275.468 83.1417 276.275 83.8706 276.275 85.0753C276.272 85.2793 276.249 85.4826 276.206 85.682ZM272.797 84.9967H275.324C275.332 84.8501 275.307 84.7035 275.251 84.5675C275.196 84.4315 275.111 84.3093 275.004 84.2097C274.896 84.1101 274.767 84.0355 274.627 83.9913C274.487 83.947 274.339 83.9341 274.193 83.9535C273.876 83.9417 273.565 84.0387 273.311 84.2285C273.057 84.4183 272.875 84.6894 272.797 84.9967Z" fill="black"/>
<path d="M276.692 87.0435C276.69 86.953 276.706 86.8631 276.74 86.7791C276.774 86.6952 276.824 86.6189 276.888 86.5549C276.952 86.4909 277.029 86.4405 277.112 86.4067C277.196 86.3729 277.286 86.3564 277.377 86.3582C277.457 86.3534 277.538 86.3652 277.614 86.393C277.69 86.4207 277.759 86.4637 277.818 86.5194C277.876 86.5751 277.923 86.6422 277.954 86.7166C277.986 86.791 278.002 86.871 278.001 86.9518C278.002 87.0421 277.985 87.1318 277.951 87.2154C277.917 87.2991 277.867 87.3751 277.803 87.439C277.739 87.5028 277.663 87.5533 277.579 87.5873C277.496 87.6213 277.406 87.6383 277.316 87.6371C277.236 87.64 277.156 87.6269 277.081 87.5984C277.005 87.57 276.937 87.5269 276.879 87.4716C276.821 87.4163 276.774 87.3499 276.742 87.2764C276.71 87.2029 276.693 87.1237 276.692 87.0435ZM277.77 81.8057H279.001L278.027 85.6685H277.211L277.77 81.8057Z" fill="black"/>
</svg>
