<svg width="30" height="30" viewBox="0 0 30 30" fill="none" xmlns="http://www.w3.org/2000/svg">
<g style="mix-blend-mode:luminosity" opacity="0.5">
<g clip-path="url(#clip0_1254_4916)">
<path d="M13.4202 23.9661C13.6588 23.9661 13.8974 23.964 14.1364 23.9661C14.1922 23.9661 14.2543 23.9471 14.2998 24.0014H13.4213C13.41 23.994 13.4061 23.9866 13.4093 23.9792C13.4124 23.9718 13.4163 23.9661 13.4202 23.9661Z" fill="#111111"/>
<path d="M15.7754 23.9996C15.906 23.9262 16.0472 23.9738 16.1831 23.9664C16.3398 23.9576 16.4972 23.9664 16.6543 23.9664C16.6656 23.9742 16.6695 23.9819 16.6656 23.9897C16.6617 23.9975 16.6578 24.0013 16.6539 24.0013L15.7754 23.9996Z" fill="#111111"/>
<path d="M12.5781 24.0003C12.677 23.9273 12.7899 23.9809 12.8937 23.9672C12.9057 23.9742 12.9096 23.9816 12.906 23.989C12.9025 23.9964 12.8983 24.0003 12.8944 24.0003H12.5781Z" fill="#444444"/>
<path d="M13.4203 23.9658C13.4203 23.9771 13.4203 23.9889 13.4203 24.0011H13.1379C13.1266 23.9937 13.1227 23.9859 13.1263 23.9782C13.1298 23.9704 13.1337 23.9669 13.1376 23.9669L13.4203 23.9658Z" fill="#232323"/>
<path d="M16.9006 23.9658L17.183 23.9679C17.1936 23.9757 17.1971 23.9827 17.1932 23.9894C17.1893 23.9961 17.1854 23.9997 17.1819 23.9997H16.8995C16.8879 23.9919 16.8843 23.9842 16.8882 23.9768C16.8921 23.9693 16.8967 23.9658 16.9006 23.9658Z" fill="#333333"/>
<path d="M13.1397 23.9658C13.1397 23.9771 13.1397 23.9884 13.1397 24.0011H12.8926C12.8926 23.9898 12.8926 23.9789 12.8926 23.9679L13.1397 23.9658Z" fill="#333333"/>
<path d="M16.8994 23.9668C16.8994 23.9781 16.8994 23.9894 16.8994 24.0021H16.6523C16.6523 23.9904 16.6523 23.9788 16.6523 23.9668H16.8994Z" fill="#222222"/>
<path d="M17.1816 24.0001C17.1816 23.9895 17.1816 23.9789 17.1816 23.9683C17.2635 23.9764 17.3525 23.9331 17.4266 24.0001H17.1816Z" fill="#444444"/>
<path d="M12.1211 24.0002C12.1497 23.9731 12.1876 23.958 12.227 23.958C12.2664 23.958 12.3043 23.9731 12.3329 24.0002H12.1211Z" fill="#909090"/>
<path d="M17.6035 23.9999C17.6741 23.9477 17.7447 23.9431 17.8153 23.9999H17.6035Z" fill="#7F7F7F"/>
<path d="M23.9713 11.2875C23.9667 11.2586 23.9561 11.2269 24.0002 11.2188V11.2893C23.99 11.3055 23.9801 11.3041 23.9713 11.2875Z" fill="#969696"/>
<path d="M23.9711 11.2878C23.9807 11.2869 23.9904 11.2869 24 11.2878V11.3583C23.9898 11.3749 23.9799 11.3735 23.9707 11.3583L23.9711 11.2878Z" fill="#7C7C7C"/>
<path d="M23.9711 11.3584C23.9809 11.3584 23.9908 11.3584 24.0004 11.3584V11.4289C23.9898 11.4455 23.9799 11.4441 23.9707 11.4289L23.9711 11.3584Z" fill="#676767"/>
<path d="M23.9711 11.4277H24.0008V11.4983C23.9669 11.4856 23.9658 11.4581 23.9711 11.4277Z" fill="#545454"/>
<path d="M23.9705 18.383C23.9659 18.3531 23.9684 18.3259 24.0005 18.3125V18.383C23.9913 18.3964 23.9815 18.3989 23.9705 18.383Z" fill="#464646"/>
<path d="M23.9688 18.3828H23.9988V18.4533C23.9896 18.4681 23.98 18.4696 23.9695 18.4533C23.9691 18.4297 23.9691 18.4061 23.9688 18.3828Z" fill="#5B5B5B"/>
<path d="M23.9707 18.4531H24V18.5236C23.9908 18.5388 23.9809 18.5392 23.9707 18.5236V18.4531Z" fill="#6F6F6F"/>
<path d="M23.9707 18.5234C23.9806 18.5234 23.9905 18.5234 24 18.5234V18.594C23.9908 18.6095 23.9809 18.6098 23.9707 18.594V18.5234Z" fill="#838383"/>
<path d="M23.9694 18.5938H23.9987V18.6643C23.9546 18.6544 23.9644 18.623 23.9694 18.5938Z" fill="#979797"/>
<path d="M18.0254 23.9995C18.0487 23.9481 18.0723 23.9481 18.096 23.9995H18.0254Z" fill="#BABABA"/>
</g>
<circle cx="15" cy="15" r="15" fill="#0165FC"/>
<g clip-path="url(#clip1_1254_4916)">
<path d="M7 20.4353C8.07849 20.5331 9.1319 20.415 10.1502 20.0477C10.8511 19.7975 11.5068 19.4333 12.0911 18.9694C10.4988 18.826 9.43287 18.0117 8.83636 16.5003C9.09573 16.5408 9.3582 16.5576 9.62056 16.5505C9.87763 16.5453 10.1331 16.5084 10.3814 16.4408C8.46349 15.9542 7.58063 14.2715 7.63372 12.9381C8.11277 13.1802 8.60603 13.3446 9.18624 13.3564C8.42126 12.7956 7.93553 12.0883 7.73864 11.193C7.54175 10.2978 7.68346 9.46403 8.11486 8.66952C8.17714 8.68175 8.19846 8.72603 8.2248 8.75892C9.68703 10.4969 11.5198 11.6181 13.723 12.1225C14.2173 12.2284 14.7183 12.2989 15.2224 12.3334C15.3198 12.3414 15.3441 12.3241 15.3261 12.2174C15.171 11.2896 15.3223 10.426 15.8185 9.62259C16.5346 8.46204 17.9947 7.80923 19.3274 8.04792C20.061 8.18033 20.6947 8.49746 21.2231 9.02629C21.2496 9.05722 21.2846 9.07957 21.3236 9.09052C21.3627 9.10148 21.404 9.10055 21.4426 9.08786C22.1152 8.93909 22.7629 8.69263 23.3654 8.35619C23.3994 8.33719 23.4342 8.32001 23.47 8.30474C23.4775 8.30137 23.49 8.30896 23.5 8.31191C23.3905 8.90526 22.8266 9.63988 22.0391 10.1961C22.7309 10.1227 23.3546 9.92707 23.9975 9.66518C23.7551 10.0406 23.4749 10.3898 23.1615 10.7072C22.9129 10.9643 22.6438 11.2003 22.3568 11.4128C22.3257 11.4305 22.3002 11.4566 22.2831 11.4882C22.266 11.5198 22.2581 11.5556 22.2602 11.5916C22.3242 13.2603 21.9676 14.8421 21.257 16.3426C20.4268 18.0935 19.2154 19.5117 17.5755 20.542C16.3983 21.2812 15.1154 21.7228 13.7418 21.9037C12.7985 22.0323 11.8421 22.0304 10.8993 21.8982C9.50863 21.7061 8.17718 21.2065 7 20.4353Z" fill="white"/>
</g>
</g>
<defs>
<clipPath id="clip0_1254_4916">
<rect width="18" height="18" fill="white" transform="translate(6 6)"/>
</clipPath>
<clipPath id="clip1_1254_4916">
<rect width="17" height="14" fill="white" transform="translate(7 8)"/>
</clipPath>
</defs>
</svg>
