<svg width="14" height="14" viewBox="0 0 14 14" fill="none" xmlns="http://www.w3.org/2000/svg">
<path d="M6.99983 0.00189209C3.13402 0.00189209 0 3.13591 0 7.00206C0 10.8682 3.13402 14.0002 6.99983 14.0002C10.8656 14.0002 13.9997 10.8662 13.9997 7.0004C13.9997 3.13459 10.8656 0.00189209 6.99983 0.00189209ZM5.72219 12.4971C3.46904 11.8849 2.05913 10.4472 1.49247 8.18408C1.43735 7.96594 1.41743 7.74082 1.38523 7.51836C1.37095 7.42075 1.40448 7.40448 1.49214 7.40979C2.01712 7.44204 2.52536 7.60689 2.96933 7.88891C4.45516 8.82324 5.4041 10.1447 5.78693 11.864C5.80217 11.9359 5.81326 12.0086 5.82014 12.0818C5.83109 12.1814 5.8374 12.2833 5.84803 12.4088C5.86297 12.4839 5.85334 12.531 5.72219 12.4955V12.4971ZM7.00515 8.05127C6.86613 8.05128 6.72849 8.02372 6.60019 7.97019C6.4719 7.91666 6.35549 7.83823 6.2577 7.73942C6.15991 7.64061 6.08268 7.52339 6.03049 7.39455C5.97829 7.2657 5.95216 7.12779 5.95361 6.98878C5.9536 6.84978 5.98116 6.71215 6.03469 6.58387C6.08823 6.4556 6.16667 6.33921 6.26548 6.24144C6.36429 6.14368 6.48151 6.06649 6.61036 6.01433C6.7392 5.96217 6.87711 5.93608 7.0161 5.93757C7.15512 5.93752 7.29276 5.96505 7.42106 6.01857C7.54936 6.07208 7.66577 6.15052 7.76354 6.24935C7.86131 6.34817 7.9385 6.4654 7.99064 6.59427C8.04279 6.72313 8.06884 6.86106 8.06731 7.00007C8.06705 7.13889 8.03931 7.27628 7.98569 7.40433C7.93206 7.53237 7.85361 7.64853 7.75487 7.7461C7.65612 7.84368 7.53903 7.92073 7.41035 7.97282C7.28168 8.02492 7.14396 8.05101 7.00515 8.04961V8.05127ZM12.6374 7.51205C12.4136 9.93055 10.6259 11.9749 8.26553 12.5071C8.23897 12.5127 8.21141 12.5127 8.17389 12.5167C8.17512 12.1525 8.22914 11.7904 8.33426 11.4416C8.82301 9.8678 9.75401 8.63797 11.1897 7.81221C11.6008 7.57483 12.0618 7.43691 12.5358 7.40946C12.6217 7.40282 12.6443 7.41975 12.6374 7.5104V7.51205ZM1.75378 4.93086C2.13594 3.96333 2.71865 3.17642 3.51552 2.54756C4.29443 1.92435 5.2287 1.52563 6.21757 1.39442C9.07734 1.00794 11.4271 2.72254 12.2605 4.92024C8.74465 3.32982 4.67895 3.59113 1.75378 4.93086Z" fill="#0165FC"/>
</svg>
