<svg width="27" height="22" viewBox="0 0 27 22" fill="none" xmlns="http://www.w3.org/2000/svg">
<g filter="url(#filter0_d_21_3953)">
<path d="M21.6786 2.97622C22.2201 3.51126 22.453 4.18493 22.5618 4.98503C22.6667 5.75568 22.6667 6.73553 22.6667 7.95118V8.04872C22.6667 9.26437 22.6667 10.2442 22.5618 11.0149C22.453 11.815 22.2201 12.4886 21.6786 13.0237C21.1371 13.5587 20.4554 13.7889 19.6456 13.8964C18.8657 14 17.8741 14 16.6438 14H12.0472C10.8169 14 9.82532 14 9.04541 13.8964C8.23569 13.7889 7.55392 13.5587 7.01244 13.0237C6.68394 12.6991 6.469 12.3235 6.32643 11.8996C7.13979 12.0002 8.14605 12.0002 9.30867 12.0001H13.9842C15.1804 12.0002 16.2111 12.0002 17.0365 11.8906C17.921 11.7731 18.7689 11.5081 19.4566 10.8285C20.1443 10.149 20.4125 9.31116 20.5314 8.43713C20.6424 7.62158 20.6423 6.60315 20.6423 5.42117V5.24561C20.6423 4.09651 20.6424 3.10199 20.5404 2.29819C20.9697 2.43906 21.35 2.65149 21.6786 2.97622Z" fill="#0165FC"/>
<path d="M11.6465 3.77781C10.777 3.77781 10.0722 4.47426 10.0722 5.33338C10.0722 6.19249 10.777 6.88895 11.6465 6.88895C12.5159 6.88895 13.2207 6.19249 13.2207 5.33338C13.2207 4.47426 12.5159 3.77781 11.6465 3.77781Z" fill="#0165FC"/>
<path fill-rule="evenodd" clip-rule="evenodd" d="M4.79044 0.781055C4 1.56211 4 2.8192 4 5.33338C4 7.84756 4 9.10464 4.79044 9.8857C5.58089 10.6668 6.85309 10.6668 9.3975 10.6668H13.8954C16.4398 10.6668 17.712 10.6668 18.5025 9.8857C19.2929 9.10464 19.2929 7.84756 19.2929 5.33338C19.2929 2.8192 19.2929 1.56211 18.5025 0.781055C17.712 0 16.4398 0 13.8954 0H9.3975C6.85309 0 5.58089 0 4.79044 0.781055ZM8.72281 5.33338C8.72281 3.73788 10.0318 2.44446 11.6465 2.44446C13.2611 2.44446 14.5701 3.73788 14.5701 5.33338C14.5701 6.92888 13.2611 8.22229 11.6465 8.22229C10.0318 8.22229 8.72281 6.92888 8.72281 5.33338ZM16.5942 7.77784C16.2215 7.77784 15.9195 7.47936 15.9195 7.11117V3.55559C15.9195 3.18739 16.2215 2.88891 16.5942 2.88891C16.9668 2.88891 17.2688 3.18739 17.2688 3.55559V7.11117C17.2688 7.47936 16.9668 7.77784 16.5942 7.77784ZM6.02406 7.11117C6.02406 7.47936 6.32613 7.77784 6.69875 7.77784C7.07137 7.77784 7.37344 7.47936 7.37344 7.11117L7.37343 3.55559C7.37343 3.18739 7.07137 2.88891 6.69875 2.88891C6.32613 2.88891 6.02406 3.18739 6.02406 3.55559L6.02406 7.11117Z" fill="#0165FC"/>
</g>
<defs>
<filter id="filter0_d_21_3953" x="0" y="0" width="26.6666" height="22" filterUnits="userSpaceOnUse" color-interpolation-filters="sRGB">
<feFlood flood-opacity="0" result="BackgroundImageFix"/>
<feColorMatrix in="SourceAlpha" type="matrix" values="0 0 0 0 0 0 0 0 0 0 0 0 0 0 0 0 0 0 127 0" result="hardAlpha"/>
<feOffset dy="4"/>
<feGaussianBlur stdDeviation="2"/>
<feComposite in2="hardAlpha" operator="out"/>
<feColorMatrix type="matrix" values="0 0 0 0 0 0 0 0 0 0 0 0 0 0 0 0 0 0 0.25 0"/>
<feBlend mode="normal" in2="BackgroundImageFix" result="effect1_dropShadow_21_3953"/>
<feBlend mode="normal" in="SourceGraphic" in2="effect1_dropShadow_21_3953" result="shape"/>
</filter>
</defs>
</svg>
