<svg width="20" height="14" viewBox="0 0 20 14" fill="none" xmlns="http://www.w3.org/2000/svg">
<path opacity="0.5" d="M18.9247 6.70519C18.1718 5.70136 17.4208 4.69583 16.6716 3.6886C16.6242 3.61657 16.5587 3.55833 16.4818 3.51973C16.4049 3.48113 16.3192 3.46352 16.2333 3.46868C15.5514 3.47633 14.8695 3.47225 14.1877 3.47174C13.9227 3.47174 13.9197 3.46868 13.9197 3.19927C13.9197 2.24102 13.9197 1.28328 13.9197 0.325029C13.9197 0.0321455 13.8882 0 13.6024 0C9.65286 0 5.70365 0 1.75479 0C0.864438 0 -0.00506262 0.718433 2.21932e-05 1.76802C0.0152766 4.89075 0.00561474 8.01398 0.00561474 11.1367C0.00561474 11.3704 0.0173098 11.3837 0.259855 11.3852C0.656471 11.3883 1.05308 11.3852 1.45021 11.3852C1.69123 11.3852 1.69581 11.3918 1.71971 11.6311C1.83259 12.7608 2.71074 13.7339 3.81007 13.9477C5.35738 14.2492 6.78774 13.2119 6.9891 11.6434C7.02215 11.3883 7.02215 11.3852 7.28249 11.3847H11.8024C11.8456 11.3847 11.8893 11.3847 11.9326 11.3847C12.0378 11.3847 12.0932 11.4291 12.0973 11.5378C12.1072 11.6806 12.1312 11.8222 12.169 11.9603C12.4766 13.2456 13.6471 14.0916 14.9799 13.9921C16.2211 13.8997 17.2523 12.8695 17.3769 11.6026C17.3972 11.3985 17.4089 11.3852 17.6158 11.3837C18.0186 11.3806 18.4218 11.3837 18.825 11.3837C18.9109 11.3837 18.9999 11.3923 19.0726 11.3286V6.96185C19.029 6.87315 18.9795 6.78741 18.9247 6.70519ZM4.3511 12.6455C4.18074 12.6453 4.01209 12.6113 3.85482 12.5456C3.69754 12.4799 3.5547 12.3837 3.43448 12.2626C3.31425 12.1415 3.21898 11.9978 3.15413 11.8397C3.08927 11.6816 3.0561 11.5123 3.0565 11.3413C3.05717 11.17 3.09149 11.0005 3.15749 10.8425C3.2235 10.6845 3.3199 10.5412 3.44118 10.4206C3.56246 10.3 3.70624 10.2047 3.86429 10.1399C4.02235 10.0752 4.19157 10.0423 4.36228 10.0432C4.70329 10.0461 5.02944 10.1837 5.26991 10.4264C5.51038 10.669 5.64578 10.9971 5.64671 11.3393C5.64778 11.5106 5.61505 11.6804 5.55039 11.839C5.48574 11.9976 5.39044 12.1417 5.27 12.2632C5.14955 12.3846 5.00635 12.4809 4.84864 12.5465C4.69093 12.6121 4.52183 12.6458 4.3511 12.6455ZM14.746 12.6455C14.5755 12.6461 14.4065 12.6127 14.2489 12.5475C14.0913 12.4822 13.9481 12.3863 13.8276 12.2653C13.707 12.1442 13.6116 12.0005 13.5467 11.8422C13.4818 11.684 13.4487 11.5145 13.4494 11.3434C13.4493 11.1722 13.483 11.0026 13.5485 10.8445C13.614 10.6864 13.7099 10.5429 13.8308 10.4221C13.9517 10.3013 14.0952 10.2056 14.253 10.1406C14.4109 10.0756 14.5799 10.0425 14.7506 10.0432C15.0917 10.0455 15.4182 10.1825 15.6593 10.4246C15.9005 10.6667 16.0369 10.9944 16.039 11.3367C16.0401 11.508 16.0075 11.6777 15.943 11.8363C15.8786 11.9948 15.7835 12.139 15.6634 12.2606C15.5432 12.3822 15.4004 12.4788 15.2429 12.5449C15.0855 12.6109 14.9166 12.6451 14.746 12.6455ZM17.4557 6.99961C16.3162 6.99961 15.1767 6.99705 14.0372 7.00267C13.907 7.00267 13.8724 6.96899 13.8734 6.83837C13.8805 6.22335 13.8805 5.60816 13.8734 4.9928C13.8734 4.86472 13.9034 4.82492 14.0356 4.82645C14.6611 4.8336 15.2865 4.83105 15.9119 4.82645C15.9506 4.82229 15.9897 4.82828 16.0253 4.84384C16.061 4.85941 16.092 4.88401 16.1153 4.91524C16.6472 5.60101 17.1831 6.28322 17.7425 6.99757L17.4557 6.99961Z" fill="#73858F"/>
</svg>
