<svg width="37" height="23" viewBox="0 0 37 23" fill="none" xmlns="http://www.w3.org/2000/svg">
<path d="M23.4727 19.9277H13.4785V2.38666H23.4727V19.9277Z" fill="#FF5F00"/>
<path d="M14.118 11.1557C14.118 7.59745 15.824 4.42784 18.4805 2.38521C16.5379 0.891537 14.0861 1.52588e-05 11.4215 1.52588e-05C5.11343 1.52588e-05 0 4.99452 0 11.1557C0 17.317 5.11343 22.3115 11.4215 22.3115C14.0861 22.3115 16.5379 21.4199 18.4805 19.9263C15.824 17.8836 14.118 14.714 14.118 11.1557Z" fill="#EB001B"/>
<path d="M36.952 11.1557C36.952 17.317 31.8385 22.3115 25.5304 22.3115C22.8659 22.3115 20.4141 21.4199 18.4707 19.9263C21.128 17.8836 22.8339 14.714 22.8339 11.1557C22.8339 7.59745 21.128 4.42784 18.4707 2.38521C20.4141 0.891537 22.8659 1.52588e-05 25.5304 1.52588e-05C31.8385 1.52588e-05 36.952 4.99452 36.952 11.1557Z" fill="#F79E1B"/>
</svg>
