<svg width="102" height="19" viewBox="0 0 102 19" fill="none" xmlns="http://www.w3.org/2000/svg">
<path d="M9.90339 14.085C9.64945 13.9563 9.35055 13.9563 9.09661 14.085L5.84205 15.7345C5.15277 16.0838 4.37667 15.4528 4.56358 14.6949L5.32456 11.6094C5.39732 11.3143 5.32063 11.002 5.11994 10.7759L2.60787 7.94661C2.10714 7.38263 2.46284 6.48149 3.20915 6.4233L6.71354 6.15005C7.04135 6.12449 7.32947 5.92015 7.46552 5.61676L8.67884 2.91098C8.9993 2.19634 10.0007 2.19634 10.3212 2.91098L11.5345 5.61676C11.6705 5.92015 11.9587 6.12449 12.2865 6.15005L15.7908 6.4233C16.5372 6.48149 16.8929 7.38263 16.3921 7.94661L13.8801 10.7759C13.6794 11.002 13.6027 11.3143 13.6754 11.6094L14.4364 14.6949C14.6233 15.4528 13.8472 16.0838 13.158 15.7345L9.90339 14.085Z" fill="#F5C107"/>
<path d="M30.5323 14.085C30.2784 13.9563 29.9795 13.9563 29.7255 14.085L26.471 15.7345C25.7817 16.0838 25.0056 15.4528 25.1925 14.6949L25.9535 11.6094C26.0262 11.3143 25.9495 11.002 25.7488 10.7759L23.2368 7.94661C22.736 7.38263 23.0917 6.48149 23.8381 6.4233L27.3424 6.15005C27.6703 6.12449 27.9584 5.92015 28.0944 5.61676L29.3077 2.91098C29.6282 2.19634 30.6296 2.19634 30.9501 2.91098L32.1634 5.61676C32.2994 5.92015 32.5876 6.12449 32.9154 6.15005L36.4198 6.4233C37.1661 6.48149 37.5218 7.38263 37.021 7.94661L34.509 10.7759C34.3083 11.002 34.2316 11.3143 34.3043 11.6094L35.0653 14.6949C35.2522 15.4528 34.4761 16.0838 33.7869 15.7345L30.5323 14.085Z" fill="#F5C107"/>
<path d="M51.1612 14.085C50.9073 13.9563 50.6084 13.9563 50.3544 14.085L47.0999 15.7345C46.4106 16.0838 45.6345 15.4528 45.8214 14.6949L46.5824 11.6094C46.6551 11.3143 46.5784 11.002 46.3778 10.7759L43.8657 7.94661C43.365 7.38263 43.7206 6.48149 44.467 6.4233L47.9714 6.15005C48.2992 6.12449 48.5873 5.92015 48.7233 5.61676L49.9366 2.91098C50.2571 2.19634 51.2585 2.19634 51.579 2.91098L52.7923 5.61676C52.9283 5.92015 53.2165 6.12449 53.5443 6.15005L57.0487 6.4233C57.795 6.48149 58.1507 7.38263 57.6499 7.94661L55.1379 10.7759C54.9372 11.002 54.8605 11.3143 54.9333 11.6094L55.6942 14.6949C55.8811 15.4528 55.105 16.0838 54.4158 15.7345L51.1612 14.085Z" fill="#F5C107"/>
<path d="M71.7901 14.085C71.5362 13.9563 71.2373 13.9563 70.9833 14.085L67.7288 15.7345C67.0395 16.0838 66.2634 15.4528 66.4503 14.6949L67.2113 11.6094C67.284 11.3143 67.2073 11.002 67.0067 10.7759L64.4946 7.94661C63.9939 7.38263 64.3496 6.48149 65.0959 6.4233L68.6003 6.15005C68.9281 6.12449 69.2162 5.92015 69.3522 5.61676L70.5656 2.91098C70.886 2.19634 71.8874 2.19634 72.2079 2.91098L73.4212 5.61676C73.5572 5.92015 73.8454 6.12449 74.1732 6.15005L77.6776 6.4233C78.4239 6.48149 78.7796 7.38263 78.2788 7.94661L75.7668 10.7759C75.5661 11.002 75.4894 11.3143 75.5622 11.6094L76.3231 14.6949C76.5101 15.4528 75.7339 16.0838 75.0447 15.7345L71.7901 14.085Z" fill="#F5C107"/>
<path d="M92.419 14.085C92.1651 13.9563 91.8662 13.9563 91.6122 14.085L88.3577 15.7345C87.6684 16.0838 86.8923 15.4528 87.0792 14.6949L87.8402 11.6094C87.9129 11.3143 87.8363 11.002 87.6356 10.7759L85.1235 7.94661C84.6228 7.38263 84.9785 6.48149 85.7248 6.4233L89.2292 6.15005C89.557 6.12449 89.8451 5.92015 89.9811 5.61676L91.1945 2.91098C91.5149 2.19634 92.5163 2.19634 92.8368 2.91098L94.0501 5.61676C94.1862 5.92015 94.4743 6.12449 94.8021 6.15005L98.3065 6.4233C99.0528 6.48149 99.4085 7.38263 98.9078 7.94661L96.3957 10.7759C96.195 11.002 96.1183 11.3143 96.1911 11.6094L96.952 14.6949C97.139 15.4528 96.3629 16.0838 95.6736 15.7345L92.419 14.085Z" fill="#F5C107"/>
</svg>
