<svg width="27" height="27" viewBox="0 0 27 27" fill="none" xmlns="http://www.w3.org/2000/svg">
<circle cx="13.5" cy="13.5" r="13.5" fill="#0165FC"/>
<path d="M12.5524 7.34214C12.5524 6.81893 12.9766 6.39478 13.4998 6.39478C14.023 6.39478 14.4472 6.81893 14.4472 7.34214V19.6579C14.4472 20.1812 14.023 20.6053 13.4998 20.6053C12.9766 20.6053 12.5524 20.1812 12.5524 19.6579V7.34214Z" fill="white"/>
<path d="M19.6577 12.5527C20.1809 12.5527 20.6051 12.9768 20.6051 13.5C20.6051 14.0233 20.1809 14.4474 19.6577 14.4474L7.3419 14.4474C6.81868 14.4474 6.39453 14.0233 6.39453 13.5C6.39453 12.9768 6.81868 12.5527 7.3419 12.5527L19.6577 12.5527Z" fill="white"/>
</svg>
