<svg width="34" height="34" viewBox="0 0 34 34" fill="none" xmlns="http://www.w3.org/2000/svg">
<circle cx="17" cy="17" r="17" fill="#0165FC"/>
<path d="M20.5 12.5C20.5 14.433 18.933 16 17 16C15.067 16 13.5 14.433 13.5 12.5C13.5 10.567 15.067 9 17 9C18.933 9 20.5 10.567 20.5 12.5Z" fill="white"/>
<path d="M23 21.5C23 23.433 20.3137 25 17 25C13.6863 25 11 23.433 11 21.5C11 19.567 13.6863 18 17 18C20.3137 18 23 19.567 23 21.5Z" fill="white"/>
<path d="M12.122 10C12.2995 10 12.4728 10.0174 12.6401 10.0506C12.2325 10.7745 12 11.6101 12 12.5C12 13.3683 12.2213 14.1848 12.6106 14.8964C12.4524 14.9258 12.2891 14.9413 12.122 14.9413C10.7076 14.9413 9.56102 13.8351 9.56102 12.4706C9.56102 11.1061 10.7076 10 12.122 10Z" fill="white"/>
<path d="M10.4473 23.986C9.87942 23.3071 9.5 22.474 9.5 21.5C9.5 20.5558 9.85657 19.744 10.3958 19.0767C8.4911 19.2245 7 20.2662 7 21.5294C7 22.8044 8.5173 23.8538 10.4473 23.986Z" fill="white"/>
<path d="M21.9999 12.5C21.9999 13.3683 21.7786 14.1848 21.3893 14.8964C21.5475 14.9258 21.7108 14.9413 21.8779 14.9413C23.2923 14.9413 24.4389 13.8351 24.4389 12.4706C24.4389 11.1061 23.2923 10 21.8779 10C21.7004 10 21.5272 10.0174 21.3599 10.0506C21.7674 10.7745 21.9999 11.6101 21.9999 12.5Z" fill="white"/>
<path d="M23.5526 23.986C25.4826 23.8538 26.9999 22.8044 26.9999 21.5294C26.9999 20.2662 25.5088 19.2245 23.6041 19.0767C24.1433 19.744 24.4999 20.5558 24.4999 21.5C24.4999 22.474 24.1205 23.3071 23.5526 23.986Z" fill="white"/>
</svg>
