<svg width="34" height="34" viewBox="0 0 34 34" fill="none" xmlns="http://www.w3.org/2000/svg">
<circle cx="17" cy="17" r="17" fill="#0165FC"/>
<path d="M20.6 12.2C20.6 13.9673 19.1673 15.4 17.4 15.4C15.6327 15.4 14.2 13.9673 14.2 12.2C14.2 10.4327 15.6327 9 17.4 9C19.1673 9 20.6 10.4327 20.6 12.2Z" fill="white"/>
<path d="M23.8 21.4C23.8 23.3882 23.8 25 17.4 25C11 25 11 23.3882 11 21.4C11 19.4118 13.8654 17.8 17.4 17.8C20.9346 17.8 23.8 19.4118 23.8 21.4Z" fill="white"/>
<path d="M25.8484 14.5986C26.0686 14.3509 26.0463 13.9717 25.7986 13.7516C25.5509 13.5314 25.1717 13.5537 24.9516 13.8014L23.2193 15.7502L22.6014 15.194C22.3551 14.9723 21.9757 14.9923 21.754 15.2386C21.5323 15.4849 21.5523 15.8643 21.7986 16.086L22.8653 17.046C22.984 17.1529 23.1405 17.208 23.3001 17.1991C23.4596 17.1902 23.609 17.118 23.7151 16.9986L25.8484 14.5986Z" fill="white"/>
</svg>
