<svg width="20" height="21" viewBox="0 0 20 21" fill="none" xmlns="http://www.w3.org/2000/svg">
<path fill-rule="evenodd" clip-rule="evenodd" d="M8.54875 19.5294L8.7988 19.107C9.19955 18.4299 9.39993 18.0914 9.71913 17.9026C10.0383 17.7138 10.4547 17.7004 11.2874 17.6738C12.0682 17.6488 12.593 17.5807 13.0417 17.3948C13.9864 17.0035 14.7369 16.253 15.1282 15.3083C15.4217 14.5998 15.4217 13.7016 15.4217 11.9052V11.1341C15.4217 8.60998 15.4217 7.34793 14.8536 6.42081C14.5357 5.90204 14.0995 5.46587 13.5807 5.14797C12.6536 4.57983 11.3916 4.57983 8.86747 4.57983H6.55422C4.03013 4.57983 2.76808 4.57983 1.84097 5.14797C1.3222 5.46587 0.886036 5.90204 0.568134 6.42081C0 7.34793 0 8.60998 0 11.1341V11.9052C0 13.7016 0 14.5998 0.293477 15.3083C0.684779 16.253 1.43533 17.0035 2.38002 17.3948C2.82871 17.5807 3.35348 17.6488 4.13427 17.6738C4.96698 17.7004 5.38334 17.7138 5.70253 17.9026C6.02172 18.0914 6.2221 18.4299 6.62285 19.107L6.87291 19.5294C7.24547 20.1589 8.17618 20.1589 8.54875 19.5294ZM11.0843 12.2907C11.6167 12.2907 12.0482 11.8591 12.0482 11.3268C12.0482 10.7945 11.6167 10.363 11.0843 10.363C10.552 10.363 10.1205 10.7945 10.1205 11.3268C10.1205 11.8591 10.552 12.2907 11.0843 12.2907ZM8.6747 11.3268C8.6747 11.8591 8.24317 12.2907 7.71084 12.2907C7.17852 12.2907 6.74699 11.8591 6.74699 11.3268C6.74699 10.7945 7.17852 10.363 7.71084 10.363C8.24317 10.363 8.6747 10.7945 8.6747 11.3268ZM4.33735 12.2907C4.86967 12.2907 5.30121 11.8591 5.30121 11.3268C5.30121 10.7945 4.86967 10.363 4.33735 10.363C3.80503 10.363 3.37349 10.7945 3.37349 11.3268C3.37349 11.8591 3.80503 12.2907 4.33735 12.2907Z" fill="#0165FC"/>
<path d="M13.1696 0.00170915C14.3214 0.00170144 15.2372 0.00169532 15.9717 0.0715337C16.7249 0.143143 17.3617 0.293247 17.9289 0.640864C18.5125 0.998504 19.0032 1.48919 19.3608 2.07281C19.7085 2.64007 19.8586 3.27685 19.9302 4.03C20 4.7645 20 5.68041 20 6.8321V7.6187C20 8.43837 20 9.09032 19.9639 9.61899C19.927 10.1599 19.85 10.6243 19.6698 11.0592C19.2296 12.1219 18.3853 12.9663 17.3225 13.4065C17.2959 13.4175 17.2692 13.4282 17.2423 13.4384C17.114 13.4875 17.0042 13.5295 16.9077 13.5608C16.9217 13.092 16.9217 12.558 16.9217 11.9554V11.0631C16.9217 9.86149 16.9217 8.85492 16.8439 8.03659C16.7625 7.17988 16.5853 6.37592 16.1325 5.63707C15.6909 4.91646 15.0851 4.3106 14.3645 3.86901C13.6256 3.41624 12.8217 3.23904 11.9649 3.15759C11.1466 3.07978 10.14 3.0798 8.93843 3.07983H6.48326C5.66717 3.07981 4.94105 3.0798 4.30276 3.10416C4.3325 3.00111 4.37324 2.88299 4.42106 2.74434C4.5024 2.50853 4.60519 2.28552 4.73554 2.07281C5.09318 1.48919 5.58386 0.998505 6.16748 0.640864C6.73473 0.293247 7.37152 0.143143 8.12466 0.0715337C8.85918 0.00169532 9.77505 0.00170144 10.9268 0.00170915H13.1696Z" fill="#0165FC"/>
</svg>
