<svg width="40" height="40" viewBox="0 0 40 40" fill="none" xmlns="http://www.w3.org/2000/svg">
<rect width="40" height="40" rx="20" fill="#0969D1" fill-opacity="0.1"/>
<path d="M16.3518 29.2418C17.1929 30.311 18.5142 31 20 31C21.4858 31 22.8071 30.311 23.6482 29.2418C21.2264 29.57 18.7736 29.57 16.3518 29.2418Z" fill="#0165FC"/>
<path d="M26.7491 18V18.7041C26.7491 19.5491 26.9903 20.3752 27.4422 21.0782L28.5496 22.8012C29.5612 24.3749 28.789 26.5139 27.0296 27.0116C22.4273 28.3134 17.5727 28.3134 12.9704 27.0116C11.211 26.5139 10.4388 24.3749 11.4504 22.8012L12.5578 21.0782C13.0097 20.3752 13.2509 19.5491 13.2509 18.7041V18C13.2509 14.134 16.2726 11 20 11C23.7274 11 26.7491 14.134 26.7491 18Z" fill="#0165FC"/>
</svg>
