<svg width="34" height="34" viewBox="0 0 34 34" fill="none" xmlns="http://www.w3.org/2000/svg">
<circle cx="17" cy="17" r="17" fill="#0165FC"/>
<path d="M15.2005 9C14.5377 9 14.0003 9.5373 14.0003 10.2001V11.0002C14.0003 11.663 14.5377 12.2003 15.2005 12.2003H19.2008C19.8636 12.2003 20.4009 11.663 20.4009 11.0002V10.2001C20.4009 9.5373 19.8636 9 19.2008 9H15.2005Z" fill="white"/>
<path fill-rule="evenodd" clip-rule="evenodd" d="M12.8002 10.6294C11.7938 10.6859 11.1585 10.8463 10.703 11.3018C10 12.0048 10 13.1362 10 15.3992V20.1996C10 22.4625 10 23.594 10.703 24.297C11.406 25 12.5375 25 14.8004 25H19.6008C21.8638 25 22.9952 25 23.6982 24.297C24.4013 23.594 24.4013 22.4625 24.4013 20.1996V15.3992C24.4013 13.1362 24.4013 12.0048 23.6982 11.3018C23.2428 10.8463 22.6074 10.6859 21.601 10.6294V11.0002C21.601 12.3258 20.5264 13.4004 19.2008 13.4004H15.2005C13.8749 13.4004 12.8002 12.3258 12.8002 11.0002V10.6294ZM13.2003 15.2005C12.8689 15.2005 12.6002 15.4692 12.6002 15.8006C12.6002 16.132 12.8689 16.4006 13.2003 16.4006H13.6003C13.9317 16.4006 14.2004 16.132 14.2004 15.8006C14.2004 15.4692 13.9317 15.2005 13.6003 15.2005H13.2003ZM16.0005 15.2005C15.6691 15.2005 15.4005 15.4692 15.4005 15.8006C15.4005 16.132 15.6691 16.4006 16.0005 16.4006H21.201C21.5324 16.4006 21.801 16.132 21.801 15.8006C21.801 15.4692 21.5324 15.2005 21.201 15.2005H16.0005ZM13.2003 18.0008C12.8689 18.0008 12.6002 18.2694 12.6002 18.6008C12.6002 18.9322 12.8689 19.2009 13.2003 19.2009H13.6003C13.9317 19.2009 14.2004 18.9322 14.2004 18.6008C14.2004 18.2694 13.9317 18.0008 13.6003 18.0008H13.2003ZM16.0005 18.0008C15.6691 18.0008 15.4005 18.2694 15.4005 18.6008C15.4005 18.9322 15.6691 19.2009 16.0005 19.2009H21.201C21.5324 19.2009 21.801 18.9322 21.801 18.6008C21.801 18.2694 21.5324 18.0008 21.201 18.0008H16.0005ZM13.2003 20.801C12.8689 20.801 12.6002 21.0697 12.6002 21.4011C12.6002 21.7325 12.8689 22.0011 13.2003 22.0011H13.6003C13.9317 22.0011 14.2004 21.7325 14.2004 21.4011C14.2004 21.0697 13.9317 20.801 13.6003 20.801H13.2003ZM16.0005 20.801C15.6691 20.801 15.4005 21.0697 15.4005 21.4011C15.4005 21.7325 15.6691 22.0011 16.0005 22.0011H21.201C21.5324 22.0011 21.801 21.7325 21.801 21.4011C21.801 21.0697 21.5324 20.801 21.201 20.801H16.0005Z" fill="white"/>
</svg>
