<svg width="22" height="21" viewBox="0 0 22 21" fill="none" xmlns="http://www.w3.org/2000/svg">
<path d="M19 11.7515C19 11.3373 18.6642 11.0015 18.25 11.0015H15.25C14.8358 11.0015 14.5 11.3373 14.5 11.7515V18.5015H13V2.25153C13 1.52322 12.9984 1.05243 12.9518 0.705554C12.908 0.380249 12.8374 0.278289 12.7803 0.221196C12.7232 0.164103 12.6213 0.0934915 12.296 0.0497555C11.9491 0.00311869 11.4783 0.00152588 10.75 0.00152588C10.0217 0.00152588 9.55091 0.00311869 9.20403 0.0497555C8.87872 0.0934915 8.77676 0.164103 8.71967 0.221196C8.66258 0.278289 8.59196 0.380249 8.54823 0.705554C8.50159 1.05243 8.5 1.52322 8.5 2.25153V18.5015H7V6.75153C7 6.33731 6.66421 6.00153 6.25 6.00153H3.25C2.83579 6.00153 2.5 6.33731 2.5 6.75153V18.5015H1H0.75C0.335786 18.5015 0 18.8373 0 19.2515C0 19.6657 0.335786 20.0015 0.75 20.0015H20.75C21.1642 20.0015 21.5 19.6657 21.5 19.2515C21.5 18.8373 21.1642 18.5015 20.75 18.5015H20.5H19V11.7515Z" fill="#0165FC"/>
</svg>
