<svg width="53" height="52" viewBox="0 0 53 52" fill="none" xmlns="http://www.w3.org/2000/svg">
<path d="M26.5 52C41.1355 52 53 40.3594 53 26C53 11.6406 41.1355 0 26.5 0C11.8645 0 0 11.6406 0 26C0 40.3594 11.8645 52 26.5 52Z" fill="#0165FC"/>
<path d="M28.5719 34.5887C28.4586 34.4766 28.3687 34.343 28.3073 34.1959C28.2459 34.0488 28.2143 33.8909 28.2143 33.7315C28.2143 33.5721 28.2459 33.4144 28.3073 33.2672C28.3687 33.1201 28.4586 32.9866 28.5719 32.8744L33.8028 27.6816H17.2482C17.0862 27.6867 16.9247 27.6592 16.7735 27.6007C16.6223 27.5423 16.4844 27.454 16.368 27.3412C16.2516 27.2284 16.159 27.0935 16.0958 26.9442C16.0326 26.795 16 26.6345 16 26.4724C16 26.3103 16.0326 26.1498 16.0958 26.0005C16.159 25.8512 16.2516 25.7163 16.368 25.6035C16.4844 25.4907 16.6223 25.4025 16.7735 25.344C16.9247 25.2856 17.0862 25.258 17.2482 25.2632H33.804L28.5719 20.0691C28.4584 19.957 28.3685 19.8236 28.307 19.6764C28.2455 19.5293 28.2139 19.3714 28.2139 19.2119C28.2139 19.0524 28.2455 18.8946 28.307 18.7475C28.3685 18.6004 28.4584 18.4669 28.5719 18.3548C28.8012 18.1275 29.1111 18 29.434 18C29.7569 18 30.0667 18.1275 30.296 18.3548L37.6071 25.6122L37.6279 25.6343L37.6451 25.6525V25.6587L37.6597 25.6747L37.6672 25.6832L37.6793 25.698L37.688 25.7077L37.6991 25.7211L37.7076 25.7322L37.7161 25.7445L37.726 25.7567L37.7345 25.7676L37.743 25.7799L37.7517 25.7921L37.7602 25.8044L37.7687 25.8166L37.7762 25.8289L37.7847 25.8424L37.7908 25.8534L37.7994 25.8681V25.8779L37.8092 25.8963V25.9036L37.8203 25.9244L37.8324 25.9489C37.8948 26.0817 37.9323 26.2249 37.9427 26.3713C37.9427 26.3811 37.9427 26.3898 37.9427 26.3996V26.4056C37.9427 26.4129 37.9427 26.4203 37.9427 26.4289C37.9427 26.4374 37.9427 26.4423 37.9427 26.4496C37.9427 26.457 37.9427 26.4497 37.9427 26.4583C37.9427 26.4681 37.9427 26.4792 37.9427 26.489C37.9427 26.489 37.9427 26.4988 37.9427 26.489C37.9427 26.489 37.9427 26.5061 37.9427 26.5147C37.9427 26.5232 37.9427 26.5207 37.9427 26.5244C37.9427 26.5281 37.9427 26.5378 37.9427 26.5452V26.6027V26.6211V26.6322V26.6517V26.6616V26.6812V26.6897V26.7105V26.7191V26.7387V26.7472V26.7668V26.7767V26.7937V26.806V26.822V26.8354V26.8489V26.8647V26.8758L37.9354 26.8942V26.9015L37.9267 26.9236L37.9158 26.9481C37.8564 27.0811 37.7734 27.2023 37.6708 27.3057L30.3597 34.563C30.1304 34.7903 29.8206 34.9178 29.4977 34.9178C29.1748 34.9178 28.8649 34.7903 28.6355 34.563L28.5719 34.5887Z" fill="#F7F9FA"/>
</svg>
