<svg width="148" height="57" viewBox="0 0 148 57" fill="none" xmlns="http://www.w3.org/2000/svg">
<path d="M14.9852 19.1238C13.846 18.2177 12.2338 17.7646 10.1484 17.7646H3.34343L0 34.4795H3.89218L4.81834 29.8001H8.10851L10.7434 34.4795H14.8278L11.9104 29.3323C12.239 29.2303 12.5607 29.1073 12.8736 28.9642C14.0248 28.4635 15.0043 27.6369 15.6914 26.5863C16.3736 25.4961 16.7213 24.2299 16.6917 22.9442C16.6917 21.3049 16.1229 20.0314 14.9852 19.1238ZM11.7136 25.8384C11.0051 26.4188 10.0064 26.709 8.71746 26.709H5.43191L6.58961 20.9066H9.64361C10.63 20.9066 11.4018 21.1019 11.959 21.4924C12.5078 21.8814 12.7833 22.4834 12.7833 23.2938C12.7787 24.416 12.4229 25.2673 11.7159 25.8477L11.7136 25.8384Z" fill="black"/>
<path d="M28.3866 22.1448C27.3777 21.6559 26.2657 21.4176 25.145 21.4502C23.7693 21.4218 22.4108 21.7598 21.2089 22.4296C20.094 23.0603 19.1701 23.9802 18.5346 25.0923C17.8786 26.2614 17.5453 27.584 17.5691 28.9243C17.5428 29.9921 17.8241 31.045 18.3795 31.9575C18.9341 32.8287 19.7251 33.5241 20.6601 33.9626C21.7482 34.4626 22.9361 34.7073 24.1332 34.6781C25.0993 34.6787 26.0603 34.5383 26.9858 34.2613C27.9004 33.9912 28.7553 33.5496 29.5049 32.96L27.9536 30.5011C27.5003 30.8966 26.9719 31.1966 26.4 31.3833C25.7934 31.5911 25.1564 31.696 24.5152 31.6935C23.3992 31.6935 22.5672 31.4512 22.0193 30.9665C21.5307 30.5358 21.2737 29.8945 21.2181 29.0679H31.0331C31.0979 28.7646 31.1488 28.4473 31.1882 28.1116C31.2279 27.7789 31.248 27.4441 31.2484 27.109C31.2828 26.0571 31.0256 25.0162 30.5052 24.1013C29.9991 23.2612 29.2643 22.5826 28.3866 22.1448ZM22.913 24.8191C23.5248 24.4163 24.2462 24.2125 24.9783 24.2356C25.5604 24.218 26.137 24.3537 26.65 24.6293C27.0996 24.8809 27.4524 25.2752 27.6526 25.7499C27.7944 26.1105 27.8568 26.4975 27.8355 26.8844H21.4728C21.5214 26.7316 21.5724 26.5788 21.6349 26.4214C21.8955 25.7741 22.3398 25.2171 22.913 24.8191Z" fill="black"/>
<path d="M43.8324 23.3658C43.4886 22.8012 42.9959 22.3422 42.4085 22.039C41.555 21.6205 40.6126 21.4155 39.6624 21.4417C38.7074 21.4337 37.7612 21.6245 36.884 22.002C36.0233 22.374 35.2453 22.9137 34.5954 23.5895C33.9454 24.2653 33.4365 25.0637 33.0983 25.9382C32.7316 26.8899 32.5493 27.9028 32.5611 28.9227C32.5296 30.0078 32.7937 31.0811 33.3252 32.0277C33.8063 32.86 34.5093 33.5422 35.3558 33.9981C36.2949 34.4818 37.3437 34.7128 38.3992 34.6686C39.4547 34.6244 40.4805 34.3063 41.3758 33.7457C41.6106 33.5853 41.8335 33.4081 42.0426 33.2154L41.8157 34.4797H45.3513L47.8983 21.6315H44.1774L43.8324 23.3658ZM41.2022 31.0482C40.6196 31.412 39.9439 31.5987 39.2572 31.5854C38.3311 31.5854 37.611 31.3307 37.097 30.8213C36.5829 30.3119 36.3236 29.6173 36.319 28.7375C36.3012 27.9723 36.4697 27.2142 36.8099 26.5286C37.1163 25.9208 37.5831 25.4084 38.1597 25.0467C38.7399 24.6873 39.4106 24.5009 40.0931 24.5096C41.0192 24.5096 41.7393 24.7643 42.2533 25.2737C42.7674 25.783 43.0259 26.4777 43.029 27.3575C43.047 28.1225 42.8794 28.8804 42.5405 29.5664C42.2359 30.1718 41.7735 30.6837 41.2022 31.0482Z" fill="black"/>
<path d="M61.6571 16.7598L60.3397 23.3401C59.9611 22.7464 59.4237 22.2707 58.7884 21.9671C57.9711 21.5993 57.0818 21.4196 56.1859 21.4415C55.2309 21.4335 54.2846 21.6243 53.4074 22.0018C52.5467 22.3738 51.7688 22.9135 51.1188 23.5893C50.4688 24.2651 49.9599 25.0635 49.6217 25.938C49.255 26.8898 49.0727 27.9026 49.0846 28.9225C49.0531 30.0076 49.3172 31.0809 49.8486 32.0275C50.3297 32.8598 51.0327 33.5421 51.8792 33.9979C52.7287 34.4377 53.6703 34.6701 54.6269 34.6762C55.5835 34.6822 56.5279 34.4617 57.3829 34.0326C57.8096 33.8028 58.2069 33.5221 58.5661 33.1967L58.3021 34.4864H61.8354L65.371 16.7667L61.6571 16.7598ZM57.721 31.0527C57.1383 31.4162 56.4627 31.6028 55.776 31.5899C54.8499 31.5899 54.129 31.3352 53.6135 30.8258C53.3477 30.5506 53.1416 30.2234 53.0081 29.8648C52.8746 29.5062 52.8166 29.124 52.8378 28.7419C52.82 27.9767 52.9885 27.2187 53.3287 26.533C53.6342 25.9253 54.1002 25.4129 54.6762 25.0512C55.2572 24.6916 55.9287 24.5053 56.6119 24.514C57.538 24.514 58.2558 24.7687 58.7722 25.2781C59.2885 25.7875 59.5478 26.4821 59.5478 27.3619C59.5658 28.1269 59.3982 28.8848 59.0593 29.5708C58.7552 30.1732 58.2956 30.6833 57.7279 31.0481L57.721 31.0527Z" fill="black"/>
<path d="M76.9379 21.6309L71.5847 30.3807L69.6791 21.6309H65.9537L68.9266 34.5207L68.7947 34.7267C68.5314 35.2032 68.17 35.6183 67.7342 35.9446C67.3614 36.1874 66.9241 36.3124 66.4793 36.3035C66.0905 36.3084 65.7047 36.2351 65.3447 36.0882C65.0061 35.9499 64.693 35.7558 64.4186 35.514L62.6982 38.1906C63.1521 38.5623 63.6767 38.838 64.2403 39.0009C65.5942 39.4303 67.0501 39.4141 68.3941 38.9546C69.0887 38.6816 69.7159 38.2614 70.2325 37.7228C70.9248 36.9987 71.5373 36.2023 72.0594 35.3473L80.6078 21.6401L76.9379 21.6309Z" fill="black"/>
<path d="M106.582 17.7646L95.79 34.4795H99.9323L102.116 30.8976H109.888L110.673 34.4795H114.542L110.435 17.7646H106.582ZM103.896 27.9524L107.832 21.511L109.245 27.9524H103.896Z" fill="black"/>
<path d="M128.576 22.1222C127.634 21.6356 126.582 21.4028 125.522 21.4466C124.463 21.4905 123.434 21.8095 122.535 22.3722C122.3 22.5302 122.078 22.7051 121.868 22.8955L122.128 21.6313H118.594L115.107 39.1125H118.833L120.104 32.7544C120.457 33.315 120.953 33.7707 121.542 34.0742C122.382 34.4861 123.309 34.6902 124.244 34.6693C125.186 34.6789 126.12 34.4955 126.989 34.1303C127.857 33.7651 128.642 33.226 129.294 32.5461C129.95 31.8599 130.466 31.0522 130.813 30.1682C131.183 29.221 131.368 28.2119 131.359 27.1952C131.394 26.1068 131.129 25.0298 130.595 24.081C130.115 23.2548 129.416 22.577 128.576 22.1222ZM127.108 29.5731C126.805 30.175 126.347 30.6855 125.781 31.0526C125.196 31.4195 124.516 31.6063 123.825 31.5898C122.899 31.5898 122.182 31.3351 121.674 30.8257C121.166 30.3163 120.911 29.6217 120.91 28.7419C120.892 27.978 121.056 27.2207 121.389 26.533C121.688 25.9245 122.151 25.4114 122.725 25.0511C123.305 24.6919 123.976 24.5055 124.658 24.514C125.598 24.514 126.323 24.7686 126.833 25.278C127.342 25.7874 127.597 26.482 127.597 27.3619C127.615 28.1276 127.447 28.8864 127.108 29.5731Z" fill="black"/>
<path d="M147.083 24.081C146.598 23.2544 145.896 22.5769 145.053 22.1222C144.111 21.6356 143.058 21.4028 141.999 21.4466C140.94 21.4905 139.91 21.8095 139.012 22.3722C138.777 22.5302 138.554 22.7051 138.345 22.8955L138.604 21.6313H135.071L131.584 39.1125H135.309L136.581 32.7544C136.934 33.3153 137.431 33.7711 138.021 34.0742C138.863 34.4878 139.792 34.6919 140.73 34.6693C141.69 34.679 142.642 34.4881 143.524 34.1089C144.373 33.7424 145.14 33.2111 145.782 32.5461C146.437 31.8597 146.951 31.0519 147.296 30.1682C147.67 29.222 147.857 28.2124 147.847 27.1952C147.882 26.1068 147.618 25.0298 147.083 24.081ZM143.585 29.5731C143.281 30.1744 142.824 30.6848 142.26 31.0526C141.674 31.4192 140.993 31.6059 140.301 31.5898C139.375 31.5898 138.658 31.3351 138.15 30.8257C137.643 30.3163 137.388 29.6217 137.386 28.7419C137.368 27.978 137.533 27.2207 137.866 26.533C138.165 25.9245 138.627 25.4114 139.202 25.0511C139.783 24.6916 140.454 24.5052 141.137 24.514C142.074 24.514 142.798 24.7686 143.309 25.278C143.82 25.7874 144.075 26.482 144.073 27.3619C144.09 28.1275 143.923 28.886 143.585 29.5731Z" fill="black"/>
<path d="M77.1701 34.8637C75.2229 38.4085 72.3796 44.7643 72.3796 44.7643C60.8396 42.3401 49.1816 39.976 49.1816 39.976L49.397 40.1103C59.0452 44.0974 76.9918 56.1769 76.9918 56.1769L77.4549 54.8061C77.9573 53.3127 78.5825 51.766 79.2169 50.2703C79.8513 48.7745 80.5321 47.2603 81.2568 45.7969C82.7017 42.8531 84.2952 39.9845 86.0311 37.2022C87.7483 34.4109 89.6245 31.7206 91.6506 29.1446C92.6663 27.8604 93.712 26.6 94.7879 25.3636C95.8638 24.1272 96.9767 22.9348 98.1267 21.7863C99.2844 20.6286 100.484 19.5149 101.713 18.436C102.943 17.357 104.2 16.3081 105.504 15.3148C106.807 14.3215 108.143 13.3745 109.521 12.4831C110.898 11.5917 112.299 10.7326 113.732 9.93615C116.617 8.34549 119.616 6.9725 122.705 5.82864C123.631 5.48596 124.557 5.17107 125.483 4.87238H125.495L125.784 4.77051C126.159 4.65242 126.539 4.53897 126.914 4.4232C130.94 3.2655 140.496 1.10755 140.496 1.10755C140.496 1.10755 101.741 -4.57442 77.1701 34.8637Z" fill="#0165FC"/>
<path d="M88.4679 45.8271C88.4593 45.5793 88.5021 45.3325 88.5938 45.1022C88.6855 44.8718 88.8239 44.663 89.0004 44.4889C89.1769 44.3148 89.3875 44.1793 89.6191 44.0908C89.8507 44.0023 90.0981 43.9628 90.3457 43.9748C91.2718 43.9748 91.8113 44.5096 91.8113 45.283C91.8199 45.5307 91.777 45.7775 91.6854 46.0079C91.5937 46.2382 91.4553 46.447 91.2788 46.6211C91.1023 46.7952 90.8917 46.9308 90.6601 47.0193C90.4285 47.1078 90.1811 47.1473 89.9335 47.1353C89.0097 47.1353 88.4679 46.6004 88.4679 45.8271ZM91.2464 45.327C91.2464 44.8245 90.9152 44.4841 90.3017 44.4841C90.1319 44.4823 89.9636 44.5153 89.8071 44.5811C89.6506 44.647 89.5093 44.7442 89.3919 44.8668C89.2745 44.9894 89.1835 45.1348 89.1245 45.294C89.0655 45.4532 89.0399 45.6228 89.049 45.7923C89.049 46.2948 89.3778 46.6375 89.9914 46.6375C90.1607 46.638 90.3283 46.604 90.484 46.5375C90.6397 46.471 90.7801 46.3734 90.8967 46.2507C91.0134 46.128 91.1037 45.9828 91.1622 45.824C91.2208 45.6651 91.2462 45.496 91.2371 45.327H91.2464Z" fill="black"/>
<path d="M94.623 45.5166C94.6213 45.6107 94.6113 45.7045 94.5929 45.7968L94.3359 47.0911H93.7872L94.0419 45.8084C94.0536 45.7497 94.059 45.6899 94.0581 45.6301C94.0581 45.3592 93.9099 45.2064 93.595 45.2064C93.4052 45.198 93.2195 45.2635 93.077 45.3891C92.9345 45.5148 92.8463 45.6908 92.8309 45.8802L92.5855 47.0911H92.0391L92.5021 44.7549H93.0231L92.9699 45.0119C93.1936 44.8199 93.4809 44.7183 93.7756 44.7271C94.2873 44.7271 94.623 45.0049 94.623 45.5166Z" fill="black"/>
<path d="M97.7558 45.7529C97.7643 45.9301 97.7366 46.1073 97.6744 46.2735C97.6121 46.4396 97.5167 46.5914 97.3938 46.7195C97.2709 46.8475 97.1233 46.9492 96.9598 47.0183C96.7963 47.0874 96.6205 47.1224 96.443 47.1213C96.2825 47.1366 96.1209 47.1071 95.9761 47.0359C95.8314 46.9648 95.7093 46.8549 95.6234 46.7184L95.5493 47.0912H95.0283L95.6766 43.8496H96.2277L95.9962 44.9772C96.2021 44.8124 96.4595 44.7255 96.7232 44.7318C96.8599 44.7238 96.9967 44.7447 97.1248 44.7931C97.2529 44.8414 97.3695 44.9162 97.4668 45.0124C97.5642 45.1087 97.6402 45.2244 97.69 45.3519C97.7398 45.4795 97.7622 45.6161 97.7558 45.7529ZM97.2048 45.7783C97.2105 45.6971 97.1982 45.6156 97.1687 45.5397C97.1392 45.4638 97.0933 45.3953 97.0341 45.3393C96.975 45.2833 96.9042 45.2411 96.8268 45.2157C96.7494 45.1903 96.6674 45.1824 96.5866 45.1925C96.475 45.1932 96.3647 45.2168 96.2626 45.2619C96.1605 45.307 96.0688 45.3727 95.9932 45.4548C95.9176 45.5369 95.8597 45.6337 95.8232 45.7392C95.7867 45.8446 95.7722 45.9565 95.7808 46.0678C95.7751 46.149 95.7874 46.2305 95.8169 46.3064C95.8464 46.3823 95.8923 46.4508 95.9515 46.5068C96.0106 46.5628 96.0814 46.605 96.1588 46.6304C96.2362 46.6558 96.3182 46.6637 96.399 46.6535C96.5106 46.6529 96.6209 46.6293 96.723 46.5842C96.8251 46.5391 96.9168 46.4734 96.9924 46.3913C97.068 46.3092 97.1259 46.2124 97.1624 46.1069C97.199 46.0015 97.2134 45.8896 97.2048 45.7783Z" fill="black"/>
<path d="M98.0522 46.0977C98.0476 45.9151 98.0806 45.7335 98.149 45.5641C98.2175 45.3948 98.3201 45.2413 98.4503 45.1132C98.5806 44.9851 98.7358 44.8852 98.9063 44.8195C99.0767 44.7539 99.2589 44.724 99.4414 44.7316C100.136 44.7316 100.578 45.1345 100.578 45.7574C100.583 45.94 100.549 46.1216 100.481 46.2909C100.412 46.4602 100.31 46.6137 100.179 46.7419C100.049 46.8701 99.8943 46.9703 99.724 47.0363C99.5536 47.1023 99.3716 47.1328 99.189 47.1258C98.4967 47.1211 98.0522 46.7113 98.0522 46.0977ZM100.025 45.7828C100.031 45.7018 100.018 45.6205 99.9889 45.5448C99.9596 45.4691 99.9138 45.4008 99.855 45.3448C99.7961 45.2888 99.7256 45.2466 99.6485 45.221C99.5714 45.1955 99.4896 45.1873 99.409 45.197C99.2973 45.1973 99.1868 45.2207 99.0846 45.2657C98.9823 45.3107 98.8905 45.3764 98.8148 45.4585C98.7392 45.5407 98.6813 45.6377 98.6449 45.7433C98.6085 45.8489 98.5943 45.9609 98.6032 46.0723C98.5975 46.1533 98.6098 46.2346 98.6392 46.3103C98.6686 46.386 98.7143 46.4543 98.7732 46.5103C98.832 46.5663 98.9025 46.6085 98.9796 46.6341C99.0567 46.6596 99.1385 46.6678 99.2191 46.6581C99.3313 46.6578 99.4421 46.6343 99.5447 46.589C99.6473 46.5438 99.7394 46.4777 99.8151 46.395C99.8909 46.3123 99.9486 46.2148 99.9847 46.1086C100.021 46.0024 100.035 45.8899 100.025 45.7782V45.7828Z" fill="black"/>
<path d="M103.598 44.7553L103.135 47.0915H102.614L102.662 46.8599C102.452 47.0429 102.18 47.1396 101.901 47.1308C101.764 47.1382 101.627 47.1166 101.499 47.0676C101.371 47.0185 101.254 46.943 101.157 46.8461C101.06 46.7491 100.985 46.6328 100.936 46.5047C100.887 46.3767 100.865 46.2397 100.873 46.1028C100.864 45.9253 100.892 45.7478 100.954 45.5815C101.017 45.4151 101.113 45.2632 101.236 45.1353C101.36 45.0073 101.508 44.906 101.672 44.8374C101.836 44.7689 102.012 44.7346 102.19 44.7367C102.344 44.7233 102.499 44.7507 102.638 44.8161C102.778 44.8816 102.898 44.9828 102.987 45.1095L103.051 44.7645L103.598 44.7553ZM102.848 45.7787C102.853 45.6974 102.841 45.6159 102.812 45.54C102.782 45.4641 102.736 45.3957 102.677 45.3396C102.618 45.2836 102.547 45.2414 102.47 45.216C102.392 45.1906 102.31 45.1827 102.229 45.1929C102.118 45.1935 102.008 45.2171 101.905 45.2622C101.803 45.3073 101.712 45.373 101.636 45.4551C101.56 45.5372 101.503 45.634 101.466 45.7395C101.43 45.8449 101.415 45.9568 101.424 46.0681C101.418 46.1493 101.43 46.2308 101.46 46.3067C101.489 46.3826 101.535 46.4511 101.594 46.5071C101.653 46.5631 101.724 46.6053 101.802 46.6307C101.879 46.6561 101.961 46.664 102.042 46.6539C102.153 46.6532 102.264 46.6296 102.366 46.5845C102.468 46.5394 102.56 46.4737 102.635 46.3916C102.711 46.3095 102.769 46.2127 102.805 46.1073C102.842 46.0018 102.856 45.8899 102.848 45.7787Z" fill="black"/>
<path d="M105.676 44.7268L105.575 45.2477C105.53 45.2403 105.485 45.2364 105.44 45.2361C105.241 45.2233 105.045 45.2887 104.894 45.4185C104.742 45.5483 104.648 45.7321 104.63 45.9308L104.398 47.0885H103.85L104.313 44.7522H104.834L104.771 45.0532C104.888 44.934 105.03 44.8427 105.186 44.7862C105.343 44.7297 105.511 44.7093 105.676 44.7268Z" fill="black"/>
<path d="M108.575 43.8447L107.929 47.0863H107.406L107.455 46.8547C107.245 47.0356 106.975 47.1321 106.698 47.1256C106.561 47.1334 106.423 47.112 106.295 47.0631C106.167 47.0142 106.051 46.9387 105.954 46.8417C105.856 46.7446 105.781 46.6282 105.732 46.5C105.683 46.3717 105.662 46.2346 105.67 46.0976C105.661 45.9204 105.688 45.7432 105.75 45.577C105.813 45.4108 105.908 45.259 106.031 45.1311C106.154 45.0031 106.302 44.9017 106.465 44.8329C106.629 44.7642 106.805 44.7297 106.982 44.7315C107.135 44.718 107.289 44.7444 107.429 44.8081C107.568 44.8719 107.689 44.9707 107.779 45.095L108.029 43.8494L108.575 43.8447ZM107.649 45.7781C107.655 45.6968 107.643 45.6153 107.613 45.5394C107.584 45.4635 107.538 45.3951 107.479 45.3391C107.419 45.2831 107.349 45.2408 107.271 45.2154C107.194 45.1901 107.112 45.1822 107.031 45.1923C106.92 45.1929 106.81 45.2165 106.708 45.2616C106.606 45.3068 106.514 45.3726 106.439 45.4547C106.364 45.5369 106.306 45.6338 106.27 45.7393C106.234 45.8447 106.221 45.9565 106.23 46.0675C106.224 46.1487 106.236 46.2303 106.266 46.3062C106.295 46.3821 106.341 46.4505 106.401 46.5065C106.46 46.5625 106.53 46.6048 106.608 46.6301C106.685 46.6555 106.767 46.6634 106.848 46.6533C106.959 46.6515 107.068 46.6269 107.169 46.5812C107.269 46.5355 107.36 46.4695 107.434 46.3875C107.508 46.3054 107.565 46.209 107.6 46.1042C107.636 45.9993 107.649 45.8884 107.64 45.7781H107.649Z" fill="black"/>
<path d="M109.113 44.7547H109.657L109.194 47.091H108.647L109.113 44.7547ZM109.182 44.0601C109.182 44.0122 109.192 43.9647 109.211 43.9207C109.23 43.8767 109.258 43.8371 109.293 43.8043C109.328 43.7715 109.369 43.7463 109.414 43.7301C109.459 43.714 109.507 43.7073 109.555 43.7105C109.597 43.7063 109.64 43.711 109.68 43.7243C109.721 43.7377 109.758 43.7593 109.789 43.7879C109.821 43.8165 109.846 43.8514 109.863 43.8903C109.88 43.9292 109.889 43.9713 109.889 44.0138C109.89 44.0627 109.882 44.1114 109.863 44.1568C109.845 44.2022 109.818 44.2432 109.782 44.2772C109.747 44.3113 109.705 44.3376 109.659 44.3544C109.614 44.3713 109.565 44.3783 109.516 44.375C109.474 44.3766 109.432 44.3696 109.393 44.3546C109.354 44.3395 109.318 44.3167 109.288 44.2875C109.258 44.2583 109.234 44.2233 109.218 44.1846C109.202 44.1459 109.194 44.1044 109.194 44.0624L109.182 44.0601Z" fill="black"/>
<path d="M112.502 45.5166C112.5 45.6107 112.49 45.7045 112.471 45.7968L112.214 47.0911H111.666L111.92 45.8084C111.933 45.7498 111.939 45.69 111.939 45.6301C111.939 45.3592 111.788 45.2064 111.476 45.2064C111.286 45.198 111.1 45.2635 110.958 45.3891C110.815 45.5148 110.727 45.6908 110.712 45.8802L110.466 47.0911H109.92L110.383 44.7549H110.904L110.851 45.0119C111.074 44.8199 111.362 44.7183 111.656 44.7271C112.166 44.7271 112.502 45.0049 112.502 45.5166Z" fill="black"/>
<path d="M115.719 44.7555L115.321 46.7375C115.145 47.6081 114.668 47.9716 113.876 47.9716C113.486 47.9907 113.101 47.8782 112.783 47.6521L113.066 47.2399C113.309 47.4219 113.607 47.5151 113.911 47.5039C114.422 47.5039 114.668 47.2723 114.756 46.8301L114.777 46.7166C114.564 46.8974 114.292 46.9938 114.013 46.9875C113.404 46.9875 112.966 46.6194 112.966 46.0197C112.964 45.8465 112.997 45.6748 113.064 45.5148C113.13 45.3548 113.228 45.2101 113.352 45.0892C113.477 44.9684 113.624 44.8741 113.786 44.8119C113.947 44.7498 114.12 44.7211 114.293 44.7277C114.455 44.7141 114.618 44.7454 114.764 44.818C114.91 44.8907 115.033 45.002 115.119 45.1399L115.194 44.7555H115.719ZM114.934 45.7257C114.934 45.3992 114.703 45.1931 114.323 45.1931C114.217 45.1886 114.111 45.2061 114.012 45.2444C113.912 45.2827 113.822 45.341 113.746 45.4158C113.671 45.4905 113.611 45.5801 113.572 45.6788C113.533 45.7775 113.514 45.8833 113.517 45.9896C113.517 46.3184 113.749 46.5221 114.135 46.5221C114.241 46.5267 114.347 46.5093 114.446 46.4709C114.545 46.4325 114.634 46.374 114.71 46.2992C114.785 46.2243 114.843 46.1347 114.882 46.036C114.921 45.9373 114.938 45.8316 114.934 45.7257Z" fill="black"/>
<path d="M121.37 45.5076C121.37 45.605 121.359 45.702 121.338 45.7971L121.081 47.0914H120.539L120.796 45.8086C120.808 45.7485 120.815 45.6872 120.814 45.6257C120.814 45.3548 120.668 45.2066 120.367 45.2066C119.99 45.2066 119.742 45.4197 119.65 45.8758L119.404 47.0914H118.858L119.117 45.8086C119.128 45.7483 119.133 45.6871 119.133 45.6257C119.133 45.3548 118.99 45.2066 118.686 45.2066C118.311 45.2066 118.061 45.4197 117.969 45.8804L117.723 47.0914H117.177L117.64 44.7551H118.158L118.112 45.0075C118.322 44.8187 118.597 44.7183 118.879 44.7273C119.024 44.7149 119.17 44.7449 119.298 44.8135C119.427 44.8821 119.533 44.9865 119.603 45.114C119.721 44.9872 119.865 44.8871 120.025 44.8204C120.184 44.7537 120.356 44.722 120.529 44.7273C121.041 44.7273 121.37 45.0006 121.37 45.5076Z" fill="black"/>
<path d="M124.549 44.7553L124.086 47.0915H123.565L123.614 46.8599C123.403 47.0429 123.131 47.1396 122.852 47.1308C122.715 47.1382 122.578 47.1166 122.45 47.0676C122.322 47.0185 122.206 46.943 122.109 46.8461C122.012 46.7491 121.936 46.6328 121.887 46.5047C121.838 46.3767 121.816 46.2397 121.824 46.1028C121.815 45.9253 121.843 45.7478 121.906 45.5815C121.968 45.4151 122.064 45.2632 122.188 45.1353C122.311 45.0073 122.459 44.906 122.623 44.8374C122.787 44.7689 122.963 44.7346 123.141 44.7367C123.295 44.7233 123.45 44.7507 123.59 44.8161C123.729 44.8816 123.849 44.9828 123.938 45.1095L124.003 44.7645L124.549 44.7553ZM123.796 45.7787C123.802 45.6974 123.79 45.6159 123.76 45.54C123.731 45.4641 123.685 45.3957 123.626 45.3396C123.567 45.2836 123.496 45.2414 123.419 45.216C123.341 45.1906 123.259 45.1827 123.178 45.1929C123.067 45.1935 122.956 45.2171 122.854 45.2622C122.752 45.3073 122.661 45.373 122.585 45.4551C122.509 45.5372 122.451 45.634 122.415 45.7395C122.378 45.8449 122.364 45.9568 122.373 46.0681C122.367 46.1493 122.379 46.2308 122.409 46.3067C122.438 46.3826 122.484 46.4511 122.543 46.5071C122.602 46.5631 122.673 46.6053 122.75 46.6307C122.828 46.6561 122.91 46.664 122.991 46.6539C123.102 46.6532 123.213 46.6296 123.315 46.5845C123.417 46.5394 123.509 46.4737 123.584 46.3916C123.66 46.3095 123.718 46.2127 123.754 46.1073C123.791 46.0018 123.805 45.8899 123.796 45.7787Z" fill="black"/>
<path d="M127.732 43.8457L127.084 47.0873H126.558L126.607 46.8557C126.397 47.0364 126.127 47.1329 125.85 47.1266C125.713 47.1343 125.576 47.113 125.448 47.0641C125.319 47.0152 125.203 46.9397 125.106 46.8426C125.009 46.7456 124.933 46.6292 124.884 46.5009C124.836 46.3727 124.814 46.2356 124.822 46.0986C124.813 45.9213 124.841 45.7442 124.903 45.578C124.965 45.4117 125.06 45.26 125.183 45.132C125.306 45.0041 125.454 44.9026 125.618 44.8339C125.781 44.7652 125.957 44.7307 126.135 44.7325C126.288 44.719 126.441 44.7454 126.581 44.8091C126.721 44.8728 126.841 44.9717 126.931 45.096L127.181 43.8503L127.732 43.8457ZM126.79 45.7791C126.796 45.698 126.783 45.6168 126.754 45.541C126.725 45.4653 126.679 45.397 126.62 45.341C126.561 45.2851 126.491 45.2428 126.414 45.2172C126.337 45.1917 126.255 45.1835 126.174 45.1933C126.063 45.1938 125.953 45.2174 125.851 45.2626C125.749 45.3078 125.657 45.3735 125.582 45.4557C125.507 45.5379 125.45 45.6348 125.414 45.7402C125.378 45.8457 125.364 45.9574 125.373 46.0685C125.367 46.1495 125.38 46.2308 125.409 46.3065C125.438 46.3822 125.484 46.4505 125.543 46.5065C125.602 46.5625 125.672 46.6048 125.749 46.6303C125.826 46.6558 125.908 46.664 125.989 46.6543C126.1 46.6537 126.21 46.6301 126.312 46.5849C126.414 46.5398 126.506 46.474 126.581 46.3918C126.656 46.3096 126.713 46.2128 126.749 46.1073C126.785 46.0019 126.799 45.8901 126.79 45.7791Z" fill="black"/>
<path d="M130.218 46.0844H128.366C128.366 46.4572 128.597 46.6587 129.039 46.6587C129.285 46.6686 129.525 46.586 129.713 46.4271L129.945 46.8068C129.675 47.0273 129.334 47.1425 128.986 47.131C128.28 47.131 127.828 46.7258 127.828 46.103C127.821 45.9231 127.85 45.7436 127.915 45.5756C127.98 45.4076 128.078 45.2547 128.205 45.1265C128.331 44.9983 128.483 44.8976 128.65 44.8306C128.817 44.7635 128.996 44.7316 129.176 44.7369C129.824 44.7369 130.253 45.1236 130.253 45.7626C130.252 45.8708 130.24 45.9786 130.218 46.0844ZM128.412 45.7209H129.75C129.754 45.6431 129.741 45.5654 129.712 45.4932C129.682 45.4211 129.637 45.3563 129.58 45.3034C129.523 45.2506 129.455 45.211 129.38 45.1876C129.306 45.1641 129.228 45.1572 129.15 45.1676C128.983 45.1614 128.818 45.2129 128.683 45.3136C128.549 45.4143 128.453 45.5581 128.412 45.7209Z" fill="black"/>
<path d="M131.533 46.8694L131.765 46.448C132.008 46.6036 132.291 46.6841 132.58 46.6795C132.939 46.6795 133.108 46.573 133.108 46.3994C133.108 46.0127 131.843 46.3114 131.843 45.5195C131.843 45.0287 132.29 44.73 132.955 44.73C133.248 44.723 133.537 44.7925 133.795 44.9314L133.594 45.3528C133.384 45.2288 133.143 45.1662 132.899 45.1722C132.545 45.1722 132.376 45.2949 132.376 45.457C132.376 45.8599 133.64 45.5589 133.64 46.3368C133.64 46.8485 133.177 47.1241 132.52 47.1241C132.173 47.1363 131.83 47.0478 131.533 46.8694Z" fill="black"/>
<path d="M134.431 44.7553H134.977L134.514 47.0915H133.968L134.431 44.7553ZM134.5 44.0607C134.5 44.0127 134.51 43.9653 134.529 43.9213C134.548 43.8773 134.576 43.8377 134.611 43.8049C134.646 43.7721 134.687 43.7468 134.732 43.7307C134.777 43.7146 134.825 43.7079 134.873 43.711C134.914 43.7076 134.956 43.7125 134.995 43.7256C135.034 43.7387 135.07 43.7597 135.101 43.7872C135.132 43.8147 135.156 43.8483 135.174 43.8857C135.191 43.9232 135.201 43.9638 135.202 44.0051C135.204 44.054 135.195 44.1027 135.177 44.1481C135.159 44.1935 135.131 44.2345 135.096 44.2685C135.061 44.3026 135.019 44.3289 134.973 44.3457C134.927 44.3626 134.878 44.3696 134.829 44.3663C134.788 44.3682 134.747 44.3617 134.708 44.3474C134.669 44.3331 134.633 44.3112 134.603 44.2829C134.573 44.2546 134.549 44.2206 134.532 44.1829C134.515 44.1451 134.506 44.1043 134.505 44.063L134.5 44.0607Z" fill="black"/>
<path d="M139.433 45.5076C139.433 45.6049 139.423 45.7019 139.402 45.797L139.145 47.0913H138.599L138.858 45.8086C138.869 45.7482 138.875 45.687 138.875 45.6257C138.875 45.3548 138.731 45.2066 138.43 45.2066C138.053 45.2066 137.803 45.4196 137.71 45.8757L137.478 47.0913H136.93L137.189 45.8086C137.202 45.7484 137.208 45.6871 137.207 45.6257C137.207 45.3548 137.062 45.2066 136.761 45.2066C136.383 45.2066 136.133 45.4196 136.043 45.8804L135.797 47.0913H135.251L135.714 44.7551H136.235L136.186 45.0075C136.396 44.8186 136.671 44.7182 136.953 44.7273C137.098 44.715 137.244 44.745 137.373 44.8135C137.502 44.8821 137.609 44.9864 137.68 45.114C137.797 44.9868 137.941 44.8865 138.101 44.8198C138.261 44.753 138.433 44.7215 138.606 44.7273C139.104 44.7273 139.433 45.0005 139.433 45.5076Z" fill="black"/>
<path d="M142.568 45.7522C142.577 45.9295 142.549 46.1066 142.487 46.2728C142.424 46.439 142.329 46.5908 142.206 46.7188C142.083 46.8469 141.935 46.9486 141.772 47.0176C141.609 47.0867 141.433 47.1218 141.255 47.1206C141.1 47.1343 140.944 47.1069 140.803 47.041C140.662 46.9752 140.541 46.8732 140.452 46.7455L140.22 47.9495H139.674L140.308 44.7635H140.829L140.781 45.009C140.991 44.8258 141.263 44.7283 141.542 44.7358C141.678 44.7285 141.814 44.7498 141.941 44.7982C142.068 44.8466 142.184 44.921 142.28 45.0168C142.377 45.1125 142.452 45.2274 142.502 45.3541C142.552 45.4807 142.574 45.6163 142.568 45.7522ZM142.017 45.7777C142.023 45.6967 142.01 45.6154 141.981 45.5397C141.952 45.4639 141.906 45.3956 141.847 45.3397C141.788 45.2837 141.718 45.2414 141.641 45.2159C141.564 45.1903 141.482 45.1821 141.401 45.1919C141.289 45.1922 141.179 45.2155 141.077 45.2606C140.974 45.3056 140.883 45.3712 140.807 45.4534C140.731 45.5356 140.673 45.6325 140.637 45.7381C140.601 45.8437 140.586 45.9558 140.595 46.0671C140.59 46.1481 140.602 46.2294 140.631 46.3051C140.661 46.3809 140.706 46.4491 140.765 46.5051C140.824 46.5611 140.895 46.6034 140.972 46.6289C141.049 46.6545 141.131 46.6627 141.211 46.6529C141.323 46.6526 141.433 46.6292 141.536 46.5842C141.638 46.5392 141.73 46.4736 141.805 46.3914C141.881 46.3092 141.939 46.2123 141.975 46.1067C142.012 46.001 142.026 45.889 142.017 45.7777Z" fill="black"/>
<path d="M143.489 43.8457H144.038L143.389 47.0873H142.843L143.489 43.8457Z" fill="black"/>
<path d="M146.518 46.0844H144.666C144.666 46.4572 144.897 46.6587 145.342 46.6587C145.588 46.6684 145.828 46.5858 146.016 46.4271L146.247 46.8068C145.978 47.0273 145.637 47.1425 145.289 47.131C144.594 47.131 144.131 46.7258 144.131 46.103C144.123 45.9231 144.153 45.7436 144.218 45.5756C144.282 45.4076 144.381 45.2547 144.507 45.1265C144.634 44.9983 144.785 44.8976 144.952 44.8306C145.12 44.7635 145.299 44.7316 145.479 44.7369C146.127 44.7369 146.555 45.1236 146.555 45.7626C146.554 45.8708 146.541 45.9787 146.518 46.0844ZM144.71 45.7209H146.051C146.055 45.6431 146.042 45.5654 146.012 45.4932C145.983 45.4211 145.938 45.3563 145.881 45.3034C145.823 45.2506 145.755 45.211 145.681 45.1876C145.607 45.1641 145.528 45.1572 145.451 45.1676C145.283 45.1613 145.117 45.2127 144.983 45.3134C144.848 45.4141 144.752 45.5579 144.71 45.7209Z" fill="black"/>
<path d="M146.774 46.8068C146.774 46.7588 146.782 46.7111 146.8 46.6666C146.818 46.622 146.845 46.5816 146.879 46.5476C146.913 46.5137 146.953 46.487 146.998 46.469C147.042 46.4511 147.09 46.4423 147.138 46.4433C147.181 46.4407 147.224 46.447 147.264 46.4617C147.304 46.4764 147.341 46.4993 147.372 46.5288C147.403 46.5583 147.428 46.5939 147.444 46.6334C147.461 46.6728 147.469 46.7153 147.469 46.7582C147.47 46.8061 147.461 46.8536 147.443 46.898C147.425 46.9424 147.398 46.9827 147.364 47.0166C147.33 47.0505 147.29 47.0772 147.245 47.0953C147.201 47.1133 147.153 47.1223 147.106 47.1217C147.063 47.1232 147.021 47.1163 146.981 47.1012C146.941 47.0861 146.905 47.0632 146.874 47.0339C146.843 47.0046 146.818 46.9694 146.801 46.9304C146.784 46.8914 146.775 46.8494 146.774 46.8068ZM147.346 44.0283H147.999L147.483 46.0774H147.05L147.346 44.0283Z" fill="black"/>
</svg>
